<svg id="e7779835-1810-4d25-8a52-1371376cad16" data-name="Layer 1" xmlns="http://www.w3.org/2000/svg" viewBox="0 0 636.24 775.8">
  <defs><style>.f6583e4f-f7ac-466e-878e-13b7ac9e5f64{fill:#ed2224;}.fa777ee4-2746-4b4d-b1d6-9a073f2b5e73{fill:#024d3a;}
  </style></defs><title>VaoCaLogoWeb</title>
  <path class="f6583e4f-f7ac-466e-878e-13b7ac9e5f64" d="M743.27,287.89c13.61-32,11.56-65.32-7.49-87.77-23.13-27.22-64.64-29.94-103.42-10.89a546.74,546.74,0,0,1,110.91,98.66" transform="translate(-129.88 -65.1)"/><path class="fa777ee4-2746-4b4d-b1d6-9a073f2b5e73" d="M222.13,596.45a42.83,42.83,0,0,1-39.95,27h-38a14.35,14.35,0,1,1,0-28.69h38a14.3,14.3,0,0,0,13.33-9,14.35,14.35,0,1,1,26.64,10.67Zm94.23-188.13a35.87,35.87,0,1,0-35.86-35.87,35.87,35.87,0,0,0,35.86,35.87m114.76-71.73c-35.59,0-42.09,101.06-42.93,157.8H368.44a14.32,14.32,0,0,1-12.28-6.95L329.7,443.49a43,43,0,0,0-36.86-20.84h-34a10.29,10.29,0,0,0-1.36,0H219.33a43,43,0,0,0-38.48,23.78L160.09,488a14.35,14.35,0,0,0,25.66,12.84l20.76-41.53a14.32,14.32,0,0,1,12.82-7.92h17.48l-25.15,61.3a43,43,0,0,0,16.83,52.71l59.17,37.36v63.8a14.35,14.35,0,1,0,28.69,0V594.8a14.38,14.38,0,0,0-6.69-12.14l-29.29-18.49,35.86-87.41,15.34,25.47a43,43,0,0,0,36.88,20.84h34.23a14.11,14.11,0,0,1,14.1,14.19v.29a14.54,14.54,0,0,1-14.35,14.2c-7.9.56-12.91,7.46-12.35,15.36,8.08,113.74,32,113.74,41,113.74,38.85,0,43-120.38,43-172.13s-4.19-172.14-43-172.14Z" transform="translate(-129.88 -65.1)"/><path class="fa777ee4-2746-4b4d-b1d6-9a073f2b5e73" d="M415.07,185.44a297,297,0,0,0-68.65,12.31c-68.57,20.05-115.17,58.19-141.1,83.46a1.16,1.16,0,0,0-.18.2c-2.62,3.3-7.67,11-5.75,19.32,3.24,13,22,18.78,35.62,16.84,9.68-1.29,16.78-7.07,20-10.32l.09-.08c20.73-18.13,55.69-44,105.53-58.9a276.88,276.88,0,0,1,77.07-11c76.43,0,145.08,31.09,195,81a275.66,275.66,0,0,1,81,194.95c0,76.43-31.09,145.09-81,195s-118.52,81-195,81a276.09,276.09,0,0,1-185.89-71.9A46.26,46.26,0,0,0,235,705.54c-20.72-9.07-49.22-4.54-52.46,6.47-.64,1.92-.64,5.09,1.83,10.76a2.69,2.69,0,0,0,.28.46,261.2,261.2,0,0,0,19.91,21.82c53.76,53.75,112.7,74.48,134.08,81A329.51,329.51,0,0,0,766.12,511.88c0-90.68-36.92-171.64-96.51-231.23A328.66,328.66,0,0,0,478.4,187a2.05,2.05,0,0,1-1.8-2l.26-35.63v-.53a2.06,2.06,0,0,1,2.06-2.06h59.47a18.11,18.11,0,0,0,18.14-18.14V85.29a20.26,20.26,0,0,0-20.2-20.19H353.8a18.1,18.1,0,0,0-18.13,18.13v43.28a20.25,20.25,0,0,0,20.19,20.2h57.41a2.06,2.06,0,0,1,2.06,2.06v.53" transform="translate(-129.88 -65.1)"/></svg>