<svg width="115" height="45" viewBox="0 0 115 45" fill="none" xmlns="http://www.w3.org/2000/svg">
<path d="M48.5028 12.9091L51.6669 22.8551H51.7884L54.9588 12.9091H58.027L53.5142 26H49.9474L45.4283 12.9091H48.5028ZM60.1188 26H57.1529L61.6721 12.9091H65.2388L69.7516 26H66.7857L63.5066 15.9006H63.4043L60.1188 26ZM59.9334 20.8544H66.9391V23.0149H59.9334V20.8544ZM62.5094 11.6435L60.5598 8.73509H63.0719L64.4334 11.6435H62.5094ZM82.7418 19.4545C82.7418 20.8821 82.4712 22.0966 81.93 23.098C81.3931 24.0994 80.6602 24.8643 79.7312 25.3928C78.8065 25.9169 77.7667 26.179 76.6119 26.179C75.4485 26.179 74.4045 25.9148 73.4798 25.3864C72.555 24.858 71.8242 24.093 71.2873 23.0916C70.7504 22.0902 70.4819 20.8778 70.4819 19.4545C70.4819 18.027 70.7504 16.8125 71.2873 15.8111C71.8242 14.8097 72.555 14.0469 73.4798 13.5227C74.4045 12.9943 75.4485 12.7301 76.6119 12.7301C77.7667 12.7301 78.8065 12.9943 79.7312 13.5227C80.6602 14.0469 81.3931 14.8097 81.93 15.8111C82.4712 16.8125 82.7418 18.027 82.7418 19.4545ZM79.9357 19.4545C79.9357 18.5298 79.7972 17.75 79.5202 17.1151C79.2475 16.4801 78.8619 15.9986 78.3633 15.6705C77.8647 15.3423 77.2809 15.1783 76.6119 15.1783C75.9428 15.1783 75.359 15.3423 74.8604 15.6705C74.3619 15.9986 73.9741 16.4801 73.6971 17.1151C73.4244 17.75 73.288 18.5298 73.288 19.4545C73.288 20.3793 73.4244 21.1591 73.6971 21.794C73.9741 22.429 74.3619 22.9105 74.8604 23.2386C75.359 23.5668 75.9428 23.7308 76.6119 23.7308C77.2809 23.7308 77.8647 23.5668 78.3633 23.2386C78.8619 22.9105 79.2475 22.429 79.5202 21.794C79.7972 21.1591 79.9357 20.3793 79.9357 19.4545ZM100.509 17.4922H97.7088C97.6577 17.13 97.5533 16.8082 97.3956 16.527C97.2379 16.2415 97.0355 15.9986 96.7884 15.7983C96.5412 15.598 96.2557 15.4446 95.9318 15.3381C95.6122 15.2315 95.2649 15.1783 94.8899 15.1783C94.2124 15.1783 93.6222 15.3466 93.1193 15.6832C92.6165 16.0156 92.2266 16.5014 91.9496 17.1406C91.6726 17.7756 91.5341 18.5469 91.5341 19.4545C91.5341 20.3878 91.6726 21.1719 91.9496 21.8068C92.2308 22.4418 92.6229 22.9212 93.1257 23.245C93.6286 23.5689 94.2102 23.7308 94.8707 23.7308C95.2415 23.7308 95.5845 23.6818 95.8999 23.5838C96.2195 23.4858 96.5028 23.343 96.75 23.1555C96.9972 22.9638 97.2017 22.7315 97.3636 22.4588C97.5298 22.1861 97.6449 21.875 97.7088 21.5256L100.509 21.5384C100.436 22.1392 100.255 22.7188 99.9652 23.277C99.6797 23.831 99.294 24.3274 98.8082 24.7663C98.3267 25.201 97.7514 25.5462 97.0824 25.8018C96.4176 26.0533 95.6655 26.179 94.826 26.179C93.6584 26.179 92.6143 25.9148 91.6939 25.3864C90.7777 24.858 90.0533 24.093 89.5206 23.0916C88.9922 22.0902 88.728 20.8778 88.728 19.4545C88.728 18.027 88.9964 16.8125 89.5334 15.8111C90.0703 14.8097 90.799 14.0469 91.7195 13.5227C92.6399 12.9943 93.6754 12.7301 94.826 12.7301C95.5845 12.7301 96.2876 12.8366 96.9354 13.0497C97.5874 13.2628 98.1648 13.5739 98.6676 13.983C99.1705 14.3878 99.5795 14.8842 99.8949 15.4723C100.214 16.0604 100.419 16.7337 100.509 17.4922ZM104.504 26H101.538L106.057 12.9091H109.624L114.136 26H111.17L107.891 15.9006H107.789L104.504 26ZM104.318 20.8544H111.324V23.0149H104.318V20.8544Z" fill="#004C39"/>
<path d="M91.6321 36V28.7273H93.1697V31.728H96.2912V28.7273H97.8253V36H96.2912V32.9957H93.1697V36H91.6321ZM99.093 36V28.7273H101.962C102.512 28.7273 102.98 28.8255 103.369 29.022C103.759 29.2161 104.056 29.492 104.26 29.8494C104.466 30.2045 104.569 30.6224 104.569 31.103C104.569 31.5859 104.465 32.0014 104.256 32.3494C104.048 32.6951 103.746 32.9602 103.351 33.1449C102.958 33.3295 102.482 33.4219 101.923 33.4219H100.002V32.1861H101.675C101.968 32.1861 102.212 32.1458 102.406 32.0653C102.6 31.9848 102.745 31.8641 102.839 31.7031C102.937 31.5421 102.985 31.3421 102.985 31.103C102.985 30.8615 102.937 30.6579 102.839 30.4922C102.745 30.3265 102.599 30.201 102.403 30.1158C102.209 30.0282 101.964 29.9844 101.668 29.9844H100.631V36H99.093ZM103.021 32.6903L104.828 36H103.131L101.362 32.6903H103.021ZM105.656 28.7273H107.552L109.555 33.6136H109.64L111.643 28.7273H113.539V36H112.048V31.2663H111.987L110.105 35.9645H109.089L107.207 31.2486H107.147V36H105.656V28.7273Z" fill="#73C41D"/>
<g clip-path="url(#clip0_977_17)">
<path d="M39.627 12.9229C40.4165 11.0667 40.2976 9.134 39.1926 7.83179C37.8509 6.25291 35.4431 6.09513 33.1937 7.20012C35.5883 8.80637 37.7527 10.7317 39.627 12.9229Z" fill="#FF0000"/>
<path d="M9.3985 30.8208C9.21413 31.2843 8.89449 31.6816 8.48119 31.9609C8.06788 32.2402 7.58006 32.3887 7.08122 32.3869H4.87704C4.76592 32.3898 4.65534 32.3705 4.55183 32.33C4.44831 32.2895 4.35395 32.2287 4.27432 32.1511C4.19469 32.0735 4.1314 31.9808 4.08818 31.8784C4.04497 31.776 4.02271 31.666 4.02271 31.5548C4.02271 31.4437 4.04497 31.3336 4.08818 31.2312C4.1314 31.1288 4.19469 31.0361 4.27432 30.9585C4.35395 30.881 4.44831 30.8201 4.55183 30.7797C4.65534 30.7392 4.76592 30.7198 4.87704 30.7227H7.08122C7.24759 30.7233 7.41028 30.6738 7.54817 30.5807C7.68606 30.4876 7.79276 30.3552 7.85442 30.2007C7.89402 30.0978 7.95368 30.0038 8.02991 29.9241C8.10615 29.8445 8.19745 29.7808 8.29852 29.7367C8.39959 29.6926 8.5084 29.6691 8.61865 29.6674C8.72889 29.6657 8.83837 29.686 8.94072 29.727C9.04308 29.768 9.13626 29.8289 9.21488 29.9062C9.29349 29.9835 9.35596 30.0757 9.39866 30.1773C9.44136 30.279 9.46343 30.3881 9.46361 30.4984C9.46378 30.6086 9.44204 30.7178 9.39966 30.8196L9.3985 30.8208ZM14.8643 19.9084C15.2758 19.9085 15.6781 19.7865 16.0204 19.558C16.3626 19.3294 16.6294 19.0045 16.7869 18.6244C16.9445 18.2442 16.9858 17.8258 16.9056 17.4222C16.8254 17.0185 16.6272 16.6477 16.3363 16.3567C16.0453 16.0657 15.6746 15.8675 15.271 15.7871C14.8674 15.7068 14.449 15.748 14.0688 15.9054C13.6886 16.0629 13.3636 16.3296 13.1349 16.6717C12.9063 17.0139 12.7842 17.4162 12.7842 17.8277C12.7842 18.3794 13.0034 18.9086 13.3934 19.2987C13.7835 19.6889 14.3126 19.9082 14.8643 19.9084ZM21.5209 15.7477C19.4565 15.7477 19.0795 21.6096 19.0308 24.9008H17.8852C17.7417 24.9008 17.6007 24.8637 17.4759 24.7931C17.3511 24.7224 17.2467 24.6207 17.1729 24.4977L15.6381 21.9484C15.4163 21.5795 15.1028 21.2744 14.7281 21.0626C14.3535 20.8507 13.9304 20.7395 13.5 20.7396H11.5279C11.5016 20.7378 11.4752 20.7378 11.449 20.7396H9.23609C8.77263 20.7394 8.3183 20.8684 7.92405 21.112C7.5298 21.3557 7.21123 21.7043 7.00407 22.1189L5.7999 24.5302C5.70676 24.7269 5.69436 24.9522 5.76536 25.1579C5.83635 25.3636 5.98509 25.5334 6.17971 25.6308C6.37433 25.7281 6.59935 25.7454 6.80656 25.6789C7.01378 25.6124 7.1867 25.4674 7.2883 25.2749L8.49247 22.866C8.56148 22.7279 8.66761 22.6117 8.79897 22.5306C8.93032 22.4494 9.08169 22.4065 9.23609 22.4066H10.25L8.7912 25.9623C8.56808 26.5053 8.54365 27.1096 8.72222 27.6689C8.90078 28.2281 9.2709 28.7065 9.76741 29.0197L13.1995 31.1868V34.8875C13.1966 34.9986 13.216 35.1092 13.2565 35.2127C13.297 35.3162 13.3578 35.4106 13.4353 35.4902C13.5129 35.5698 13.6056 35.6331 13.708 35.6763C13.8104 35.7195 13.9205 35.7418 14.0316 35.7418C14.1428 35.7418 14.2528 35.7195 14.3552 35.6763C14.4576 35.6331 14.5504 35.5698 14.6279 35.4902C14.7055 35.4106 14.7663 35.3162 14.8068 35.2127C14.8473 35.1092 14.8666 34.9986 14.8637 34.8875V30.7251C14.8636 30.5845 14.828 30.4462 14.7601 30.3231C14.6923 30.2 14.5944 30.0961 14.4757 30.0209L12.7767 28.9484L14.8567 23.8782L15.7465 25.3556C15.9684 25.7246 16.2821 26.0298 16.657 26.2417C17.0318 26.4535 17.4552 26.5647 17.8857 26.5644H19.8712C19.9791 26.5645 20.0858 26.5858 20.1853 26.6273C20.2849 26.6688 20.3752 26.7295 20.4512 26.8059C20.5272 26.8824 20.5874 26.9732 20.6282 27.073C20.669 27.1728 20.6897 27.2797 20.6891 27.3875V27.4043C20.684 27.6226 20.5944 27.8305 20.4392 27.9841C20.2839 28.1378 20.0751 28.2252 19.8567 28.228C19.3985 28.2604 19.1079 28.6607 19.1404 29.1189C19.6091 35.7164 20.9965 35.7164 21.5186 35.7164C23.7721 35.7164 24.0128 28.7338 24.0128 25.732C24.0128 22.7303 23.7697 15.7471 21.5186 15.7471L21.5209 15.7477Z" fill="#004C39"/>
<path d="M20.5899 6.98028C19.2391 7.06107 17.9026 7.30074 16.6079 7.69432C12.6305 8.85731 9.9275 11.0696 8.42344 12.5354C8.41952 12.5388 8.41601 12.5427 8.41299 12.547C8.26102 12.7384 7.9681 13.185 8.07947 13.6676C8.2674 14.4217 9.35557 14.757 10.1456 14.6444C10.7071 14.5696 11.1189 14.2343 11.3057 14.0458L11.3109 14.0412C12.5133 12.9896 14.5412 11.489 17.4321 10.6247C18.8848 10.2026 20.3898 9.98774 21.9026 9.98666C26.3358 9.98666 30.3179 11.79 33.2135 14.685C34.7012 16.1688 35.8819 17.9311 36.688 19.8715C37.4942 21.8118 37.9101 23.8919 37.9118 25.993C37.9118 30.4263 36.1085 34.4089 33.2135 37.3039C30.3184 40.199 26.3387 42.0023 21.9026 42.0023C17.9145 42.0032 14.0696 40.516 11.1201 37.8318C10.8503 37.5339 10.5171 37.3004 10.145 37.1485C8.94316 36.6224 7.29002 36.8852 7.10209 37.5238C7.06497 37.6352 7.06497 37.819 7.20824 38.1479C7.21275 38.1573 7.21819 38.1663 7.22448 38.1746C7.58525 38.6179 7.97083 39.0405 8.37935 39.4403C11.4977 42.558 14.9165 43.7604 16.1566 44.1386C19.0155 45.0289 22.0435 45.235 24.9967 44.7404C27.9498 44.2458 30.7454 43.0642 33.1582 41.291C35.5709 39.5178 37.5333 37.2025 38.8872 34.5318C40.241 31.861 40.9485 28.9096 40.9524 25.9153C40.9524 20.6555 38.8109 15.9594 35.3544 12.5029C32.3626 9.51168 28.4607 7.60064 24.2633 7.07077C24.2349 7.06727 24.2086 7.05361 24.1894 7.03229C24.1703 7.01097 24.1594 6.98344 24.1589 6.95476L24.174 4.88805V4.85731C24.174 4.82562 24.1866 4.79523 24.209 4.77282C24.2314 4.75041 24.2618 4.73782 24.2935 4.73782H27.743C27.8813 4.73805 28.0182 4.71099 28.146 4.65819C28.2737 4.6054 28.3898 4.5279 28.4876 4.43015C28.5853 4.3324 28.6628 4.21631 28.7156 4.08855C28.7684 3.96079 28.7955 3.82386 28.7952 3.68562V1.17112C28.7942 0.860746 28.6704 0.563402 28.4508 0.343991C28.2313 0.12458 27.9339 0.000918762 27.6236 1.44463e-06H17.036C16.8978 -0.00022775 16.7609 0.0268169 16.6333 0.0795848C16.5056 0.132353 16.3895 0.209806 16.2918 0.307504C16.1941 0.405202 16.1167 0.521223 16.0639 0.648916C16.0112 0.776608 15.9841 0.91346 15.9843 1.05163V3.56207C15.9851 3.87248 16.1087 4.16998 16.3282 4.38953C16.5476 4.60908 16.845 4.73284 17.1555 4.73376H20.4855C20.5012 4.73376 20.5167 4.73685 20.5312 4.74286C20.5457 4.74886 20.5589 4.75766 20.57 4.76876C20.5811 4.77985 20.5899 4.79303 20.5959 4.80752C20.6019 4.82202 20.605 4.83756 20.605 4.85325V4.88399" fill="#004C39"/>
</g>
<defs>
<clipPath id="clip0_977_17">
<rect width="45" height="45" fill="white"/>
</clipPath>
</defs>
</svg>
