<svg xmlns:inkscape="http://www.inkscape.org/namespaces/inkscape" xmlns:sodipodi="http://sodipodi.sourceforge.net/DTD/sodipodi-0.dtd" xmlns="http://www.w3.org/2000/svg" xmlns:svg="http://www.w3.org/2000/svg" version="1.1" id="svg1" width="1000.6667" height="700.6667" viewBox="0 0 1706.6667 1066.6667" sodipodi:docname="reshot-illustration-business-working-process-ZXT3ULVWKA.eps">
  <defs id="defs1">
    <clipPath clipPathUnits="userSpaceOnUse" id="clipPath61">
      <path d="M 5992.5,3821.4 5745,3431 l -401.4,-253 90.7,-162.3 415.2,272.3 247.4,461.9 z" transform="translate(0,2.5000001e-4)" id="path61"/>
    </clipPath>
    <clipPath clipPathUnits="userSpaceOnUse" id="clipPath71">
      <path d="m 5780,3081.7 c -3.7,-20 -61.2,-341.4 24.1,-721.3 0,0 -322.7,105.4 -641.6,18.4 0,0 164.9,201.6 124.6,340.9 -40.3,139.3 -293.3,447.3 150,553.6 l 291.8,40 c 0,0 51.1,-231 51.1,-231.6 z" transform="translate(0,2.5000001e-4)" id="path71"/>
    </clipPath>
    <clipPath clipPathUnits="userSpaceOnUse" id="clipPath73">
      <path d="m 5780,3081.7 c -3.7,-20 -61.2,-341.4 24.1,-721.3 0,0 -322.7,105.4 -641.6,18.4 0,0 164.9,201.6 124.6,340.9 -40.3,139.3 -293.3,447.3 150,553.6 l 291.8,40 c 0,0 51.1,-231 51.1,-231.6 z" transform="translate(0,2.5000001e-4)" id="path73"/>
    </clipPath>
    <clipPath clipPathUnits="userSpaceOnUse" id="clipPath75">
      <path d="m 5780,3081.7 c -3.7,-20 -61.2,-341.4 24.1,-721.3 0,0 -322.7,105.4 -641.6,18.4 0,0 164.9,201.6 124.6,340.9 -40.3,139.3 -293.3,447.3 150,553.6 l 291.8,40 c 0,0 51.1,-231 51.1,-231.6 z" transform="translate(0,2.5000001e-4)" id="path75"/>
    </clipPath>
    <clipPath clipPathUnits="userSpaceOnUse" id="clipPath77">
      <path d="m 5780,3081.7 c -3.7,-20 -61.2,-341.4 24.1,-721.3 0,0 -322.7,105.4 -641.6,18.4 0,0 164.9,201.6 124.6,340.9 -40.3,139.3 -293.3,447.3 150,553.6 l 291.8,40 c 0,0 51.1,-231 51.1,-231.6 z" transform="translate(0,2.5000001e-4)" id="path77"/>
    </clipPath>
    <clipPath clipPathUnits="userSpaceOnUse" id="clipPath79">
      <path d="m 5780,3081.7 c -3.7,-20 -61.2,-341.4 24.1,-721.3 0,0 -322.7,105.4 -641.6,18.4 0,0 164.9,201.6 124.6,340.9 -40.3,139.3 -293.3,447.3 150,553.6 l 291.8,40 c 0,0 51.1,-231 51.1,-231.6 z" transform="translate(0,2.5000001e-4)" id="path79"/>
    </clipPath>
    <clipPath clipPathUnits="userSpaceOnUse" id="clipPath86">
      <path d="m 6467.2,3652.7 c 0,0 -328.1,-395.9 -348.3,-408.7 -20.2,-12.8 -338.9,-161.3 -338.9,-161.3 v -1 c -3.7,-20 -61.2,-341.4 24.1,-721.3 0,0 -322.7,105.4 -641.6,18.4 0,0 164.9,201.6 124.6,340.9 -40.3,139.3 -293.3,447.3 150,553.6 l 291.8,40 330,95.5 335.4,326.2 z" transform="translate(0,2.5000001e-4)" id="path86"/>
    </clipPath>
  </defs>
  <sodipodi:namedview xmlns:sodipodi="http://sodipodi.sourceforge.net/DTD/sodipodi-0.dtd" xmlns:inkscape="http://www.inkscape.org/namespaces/inkscape" id="namedview1" pagecolor="#ffffff" bordercolor="#000000" borderopacity="0.25" inkscape:showpageshadow="2" inkscape:pageopacity="0.0" inkscape:pagecheckerboard="0" inkscape:deskcolor="#d1d1d1">
    <inkscape:page x="0" y="0" inkscape:label="1" id="page1" width="1706.6667" height="1066.6667" margin="0" bleed="0"/>
  </sodipodi:namedview>
  <g xmlns:inkscape="http://www.inkscape.org/namespaces/inkscape" id="g1" inkscape:groupmode="layer" inkscape:label="1">
    <g id="group-R5">
      <path id="path2" d="M 0,8000 H 12800 V 0 H 0 v 8000" style="fill:#ffffff;fill-opacity:1;fill-rule:nonzero;stroke:none" transform="matrix(0.13333333,0,0,-0.13333333,0,1066.6667)"/>
      <path id="path3" d="M 0,8000 H 12800 V 0 H 0 v 8000" style="fill:#ffffff;fill-opacity:1;fill-rule:nonzero;stroke:none" transform="matrix(0.13333333,0,0,-0.13333333,0,1066.6667)"/>
      <path xmlns="http://www.w3.org/2000/svg" id="path4" d="M 21816,2646 3910,-2154.8 c 0,0 1720,1428.101 1293,2570.499 C 4776,1558.1 3878.3,2743.5 5762.3,4191.4 c 1884,1447.9 2654,1560 1689.4,3467.4 -964.6,1907.4 2376.3,5170 4916.1,1016.2 2539.8,-4153.8 2900,-1620.8 4345.9,-2055 1445.9,-434.2 845.5,-2432.2 2585.7,-2521.6 C 21039.6,4009 21616.5,3390 21816,2646" style="fill:#f7ffe5;fill-opacity:1;fill-rule:nonzero;stroke:none" transform="matrix(0.13333333,0,0,-0.13333333,0,1066.6667)"/>
      <path xmlns="http://www.w3.org/2000/svg" id="path5" d="m 12097.7,393.102 c 0,0 477.6,322.097 347.5,763.098 -130.1,441 -84.4,433.8 -15.2,663.8 69.2,230 101.4,480.5 -61.4,618.5 -162.8,138 2.5,265.3 -257.1,374.9 0,0 26.9,-410 -96.6,-569.4 -123.5,-159.4 -224.4,-495.7 -155.9,-680 68.5,-184.3 166.7,-449.1 55.8,-686.398 -110.9,-237.301 75.2,-448.102 182.9,-484.5" style="fill:#00673b;fill-opacity:1;fill-rule:nonzero;stroke:none" transform="matrix(0.13333333,0,0,-0.13333333,0,1066.6667)"/>
      <path id="path6" d="m 12020,293.5 c 60.8,92.07 106.4,193.379 134.9,300 14,53.059 22.9,107.34 26.6,162.102 l 1.4,20.5 c 0,6.898 0,13.699 0,20.597 v 20.602 10 c 0,3.5 0,6.898 0,10 l -2.2,41 c -1,13.418 -2.8,26.769 -5.3,40 -2.6,13.301 -6,26.597 -9.2,40 -3.2,13.398 -6.4,26.898 -9.5,40 -6,26.999 -11.4,54.099 -16.8,81.099 -10.7,54 -21.3,108.1 -31.7,162.3 -10,54.2 -20,108.4 -28.4,163 -8.8,54.65 -14.7,109.73 -17.7,165 l -0.8,20.8 c 0,6.9 0,13.9 0,20.8 0,6.9 0,13.9 0,20.8 l 0.9,20.8 v 10 l 1,10 1.9,20.8 c 0.7,6.9 1.9,13.8 2.8,20.7 0.9,6.9 1.8,13.8 3.3,20.6 9.3,54.99 26.4,108.37 50.9,158.5 12.6,24.83 27.1,48.67 43.4,71.3 16,22.7 33.2,44.2 48.6,66.7 7.7,11.18 14.8,22.76 21.3,34.7 12.8,23.85 21.8,49.52 26.8,76.1 2.5,13.22 4.2,26.58 5.1,40 4.5,54.4 -4.7,108.9 -16.1,162.6 -11.4,53.7 -25.8,107 -40,160 -14.2,53 -28.2,106.6 -43,160 -14.8,53.4 -30,105.9 -46.6,158.6 17.5,-52.34 34.2,-104.87 50,-157.6 15.7,-52.8 30.7,-105.9 45.8,-158.9 7.5,-26.5 14.7,-53.1 21.8,-80 7.1,-26.9 13.9,-53.4 20,-80 6.1,-26.6 11.5,-54.1 15.1,-81.7 3.7,-27.6 4.8,-55.5 3.1,-83.31 -0.8,-13.97 -2.4,-27.9 -4.8,-41.69 -2.6,-13.8 -6.1,-27.4 -10.6,-40.7 -4.6,-13.31 -10.2,-26.25 -16.8,-38.7 -6.6,-12.32 -13.9,-24.28 -21.8,-35.8 -15.6,-23.11 -32.8,-44.6 -48.4,-67.1 -15.9,-22.21 -30,-45.61 -42.3,-70 -23.7,-49.16 -40.3,-101.45 -49.2,-155.3 -9,-53.98 -12,-108.77 -9,-163.4 2.8,-54.8 8.4,-109.4 17,-163.6 8.1,-54.4 17.8,-108.6 27.8,-162.7 10,-54.1 20,-108.3 31.1,-162.3 5.2,-27.1 10.6,-54 16.4,-80.899 2.8,-13.5 5.8,-26.91 8.9,-40 3.1,-13.102 6.4,-26.801 8.9,-40.602 2.4,-13.738 4.1,-27.59 5,-41.5 l 1.8,-41.597 c 0,-3.403 0,-6.903 0,-10 v -10 -20.801 c 0,-7.012 0,-13.899 -0.6,-20.813 l -1.6,-20.687 c -4.3,-55.192 -13.8,-109.852 -28.6,-163.199 -15,-53.223 -34.5,-105.051 -58.4,-154.903 l -9,-18.711 c -3,-6.199 -6.4,-12.187 -9.5,-18.297 -6.3,-12.289 -13.2,-24.293 -20,-36.293 C 12050,340 12035.2,316.199 12020,293.5" style="fill:#ffffff;fill-opacity:1;fill-rule:nonzero;stroke:none" transform="matrix(0.13333333,0,0,-0.13333333,0,1066.6667)"/>
      <path xmlns="http://www.w3.org/2000/svg" id="path7" d="m 12325.4,-312.898 c 0,0 183.3,358.4996 -108.4,709.398 -291.7,350.898 -503,552.402 -460.9,893.7 42.1,341.3 1.4,564.9 -158.9,720.9 -160.3,156 -125.8,227.7 -250,346.9 -124.2,119.2 -369.3,236.1 -369.3,236.1 0,0 323.3,-446.7 251.9,-770 -71.4,-323.3 -39.4,-562.11 105.8,-782.7 145.2,-220.599 97.2,-667.9 470,-892.099 372.8,-224.1994 519.8,-462.199 519.8,-462.199" style="fill:#1d9336;fill-opacity:1;fill-rule:nonzero;stroke:none" transform="matrix(0.13333333,0,0,-0.13333333,0,1066.6667)"/>
      <path transform="matrix(0.13333333,0,0,-0.13333333,0,1066.6667)" style="fill:#ffffff;fill-opacity:1;fill-rule:nonzero;stroke:none" d="m 12318.5,-370.5 c 5.1,71.191 2,142.719 -9.2,213.199 -11.3,70.4299 -32.5,138.9221 -62.8,203.5002 -8,15.8008 -15.6,31.9024 -24.5,47.3008 -8.9,15.402 -18.2,30.602 -28.2,45.301 -20.4,29.168 -42.4,57.211 -65.8,84 l -139.3,162.5 c -46.4,54.199 -92.8,108.398 -138.4,163.301 -22.8,27.468 -45.4,55.128 -67.8,83 -22.2,27.898 -44.2,56.097 -64.6,85.5 -40.1,59.457 -74.2,122.738 -101.8,188.898 -3.7,8.199 -6.6,16.602 -10,25 l -10,25 -8.8,25.402 c -2.9,8.496 -5.8,16.899 -8.3,25.498 -5.2,17.1 -10.6,34.2 -15,51.6 -2.3,8.6 -4.7,17.2 -6.8,25.9 l -6.2,26.1 c -16.2,70 -26.9,140.5 -36.3,211.3 -9.4,70.8 -18.7,141.7 -21,213.3 -1.3,35.8 -0.5,71.7 1.6,107.4 2.1,35.7 5.8,71.2 7.2,106.7 2.7,71.07 -5.9,142.11 -25.4,210.5 -19,68.59 -46.7,134.48 -82.3,196.1 -35.7,61.68 -77.3,119.78 -124.1,173.5 l -17.2,20 -18.2,20 -18.3,20 c -6.1,6.5 -12,13.2 -18.5,19.3 l -38.3,37.3 -10,9.3 -10,8.9 -20,17.8 -20,17.8 -10,8.9 -10,8.5 -40.2,32.9 c -13.5,11.5 -28.1,21.9 -42.2,32.8 l -42.7,32.2 43,-31.8 c 14.3,-10.7 28.9,-20.9 42.6,-32.4 l 41.8,-33.5 10,-8.4 c 3.4,-2.8 6.7,-5.8 10,-8.8 l 20,-17.6 20,-17.6 10,-8.8 10,-9.3 38.7,-37 c 6.6,-6 12.5,-12.7 18.7,-19.1 l 18.5,-19.4 18.5,-19.4 17.5,-20 c 47.3,-53.63 89.4,-111.65 125.6,-173.3 36.2,-61.88 64.5,-128.11 84,-197.1 20.2,-68.99 29.1,-140.77 26.5,-212.6 -1.3,-35.8 -5.1,-71.3 -7,-106.91 -1.9,-35.59 -2.8,-70.99 -1.4,-106.59 2.4,-71.1 12.2,-141.7 21.3,-212.5 9.1,-70.8 20,-141.1 36.5,-210 l 6.1,-26 c 2.1,-8.6 4.5,-17.2 6.8,-25.8 4.3,-17.2 10,-34.2 14.7,-51.2 2.5,-8.6 5.4,-17.002 8.3,-25.4 l 8.6,-25.199 10,-24.903 c 3.3,-8.296 6.2,-16.699 10,-24.796 27.3,-65.68 61,-128.512 100.6,-187.602 20,-29.102 42.1,-57.301 64.2,-85.199 22.1,-27.899 44.7,-55.5 67.5,-83 45.6,-54.801 91.5,-109.403 137.7,-163.801 l 138.4,-163.301 c 23.4,-27.09 45.3,-55.398 65.7,-84.801 10,-14.898 19.4,-30 28.1,-45.7964 8.7,-15.8008 16.5,-31.7032 24.4,-47.8008 29.8,-65.1211 50.3,-134.0899 61,-204.8988 10.3,-70.82 12.5,-142.593 6.5,-213.902" id="path8"/>
      <path xmlns="http://www.w3.org/2000/svg" id="path9" d="m 11630,130 c -24,158.402 -143.4,345.199 -397.9,431.301 -254.5,86.097 -333.3,304.699 -353.4,477.299 -20.1,172.6 -157.6,424.1 -157.6,424.1 l 7,-4 3,-1.8 c 62.5,-33.85 127.2,-63.65 193.5,-89.2 142.2,-56.8 179.2,-243.8 304.5,-299.3 125.3,-55.5 217.7,-129.998 302.2,-241.798 84.5,-111.801 154.8,-174.5 380.6,-242.114 225.8,-67.59 333.1,-530.7888 333.1,-530.7888 -4.7,-13 -10,-25.1992 -15.3,-36.7109 0.1,-0.3164 0.1,-0.6563 0,-0.9883 -157,-329 -575.8,-43.5 -599.7,114" style="fill:#00673b;fill-opacity:1;fill-rule:nonzero;stroke:none" transform="matrix(0.13333333,0,0,-0.13333333,0,1066.6667)"/>
      <path id="path10" d="m 12229.3,16.1992 c -58.2,34 -114.9,70.6719 -170,109.9998 -75.7,54.492 -147.3,114.371 -214.3,179.199 -33.6,32.403 -65.7,66.301 -97,100.801 -31.3,34.5 -62.5,68.801 -95.8,101.102 -33.3,32.301 -68.2,63 -104.4,92.097 -36,29.231 -73.5,56.594 -112.3,82.004 -19.6,12.399 -39.6,24.129 -60,35.2 -20,11.199 -41.1,22.199 -60.8,35.097 -19.6,12.93 -38.2,27.172 -55.9,42.602 -8.9,7.597 -17.5,15.597 -26.1,23.398 l -25.1,24.5 c -32.9,33.262 -62.8,69.403 -89.3,108 -26.7,38.403 -50,78.501 -75.2,117.801 -49.3,78.69 -103.8,153.99 -163.1,225.4 -47.7,57.6 -98.1,112.76 -151.4,165.5 l 3,-1.7 c 53.3,-51.06 103.9,-104.74 151.7,-161 60.4,-71.04 116,-146.08 166.3,-224.6 l 37.5,-58.9 18.8,-29.399 c 6.4,-10 12.7,-19.399 19.4,-28.801 26.4,-38.109 56.1,-73.809 88.8,-106.699 l 25,-24.199 c 8.6,-7.7 17,-15.704 25.8,-23.102 17.5,-15.141 36,-29.098 55.3,-41.801 19.2,-12.597 40,-23.398 60,-34.597 20,-11.204 40.7,-22.801 60,-35.301 39,-25.692 76.6,-53.36 112.8,-82.899 36.3,-29.3 71.4,-60 104.7,-92.902 33.3,-32.898 64.8,-67.301 96,-101.801 31.2,-34.5 62.9,-68.5 96,-101 66.4,-65.07 137.4,-125.301 212.4,-180.199 54.1,-40 110,-77.5 167.8,-112.3008 l -0.6,-1.5" style="fill:#ffffff;fill-opacity:1;fill-rule:nonzero;stroke:none" transform="matrix(0.13333333,0,0,-0.13333333,0,1066.6667)"/>
      
      
      
      
      
      
      
      
      
      
      
      
      
      
      
      
      
      
      
      
      
      
      
      
      
      
      
      
      
      
      
      
      
      
      
      
      
      
      
      
      
      
      
      
      
      
      
      
      
      
      
      
      
      
      
      
      
       <path id="path89" d="m 5443.8,4402.1 c 7.3,0 10.7,-6.2 13.8,-11.6 3.1,-5.4 5.4,-9 9.4,-9 4,0 6.1,3.4 9.3,9 3.2,5.6 6.5,11.6 13.8,11.6 7.3,0 10.8,-6.2 13.9,-11.6 3.1,-5.4 5.3,-9 9.3,-9 4,0 6.2,3.4 9.3,9 3.1,5.6 6.6,11.6 13.8,11.6 7.2,0 10.8,-6.2 13.9,-11.6 3.1,-5.4 5.3,-9 9.3,-9 1.38,0 2.5,-1.12 2.5,-2.5 0,-0.03 0,-0.07 0,-0.1 0,-1.4 -1.1,-2.54 -2.5,-2.6 -7.3,0 -10.8,6.2 -13.8,11.6 -3,5.4 -5.4,9 -9.4,9 -4,0 -6.1,-3.4 -9.3,-9 -3.2,-5.6 -6.5,-11.6 -13.8,-11.6 -7.3,0 -10.8,6.2 -13.8,11.6 -3,5.4 -5.4,9 -9.4,9 -4,0 -6.2,-3.4 -9.3,-9 -3.1,-5.6 -6.5,-11.6 -13.8,-11.6 -7.3,0 -10.8,6.2 -13.9,11.6 -3.1,5.4 -5.3,9 -9.3,9 -4,0 -6.3,-3.4 -9.4,-9 -3.1,-5.6 -6.5,-11.6 -13.9,-11.6 -1.44,0.01 -2.59,1.18 -2.58,2.62 0.01,1.42 1.16,2.57 2.58,2.58 4.1,0 6.3,3.4 9.4,9 3.1,5.6 6.6,11.6 13.9,11.6" style="fill:#ffffff;fill-opacity:1;fill-rule:nonzero;stroke:none" transform="matrix(0.13333333,0,0,-0.13333333,0,1066.6667)"/>
      
      
      
      
      
      
      
      
      
      
      
      
      
      
      <path id="path104" d="m 7521.9,6697.2 c -2.73,-49.63 35.29,-92.08 84.92,-94.8 49.63,-2.73 92.08,35.29 94.81,84.92 2.72,49.47 -35.07,91.84 -84.53,94.78 v 0 c -49.62,2.95 -92.23,-34.89 -95.17,-84.5 -0.01,-0.14 -0.02,-0.27 -0.03,-0.4" style="fill:#ffffff;fill-opacity:1;fill-rule:nonzero;stroke:none" transform="matrix(0.13333333,0,0,-0.13333333,0,1066.6667)"/>
      
      
      
      
      <path id="path109" d="M 10429,6045.8 H 9276.9 c 0,0 91.8,656.3 340,234.1 0,0 211.1,578.3 431.4,-32.2 -0.3,0 380.7,128.5 380.7,-201.9" style="fill:#ffffff;fill-opacity:1;fill-rule:nonzero;stroke:none" transform="matrix(0.13333333,0,0,-0.13333333,0,1066.6667)"/>
      <path id="path110" d="M 12722.2,4956.9 H 11570 c 0,0 91.8,656.4 340,234.1 0,0 211.1,578.3 431.4,-32.1 -0.2,-0.1 380.8,128.5 380.8,-202" style="fill:#ffffff;fill-opacity:1;fill-rule:nonzero;stroke:none" transform="matrix(0.13333333,0,0,-0.13333333,0,1066.6667)"/>
      <path id="path111" d="M 5556.4,5592.4 H 4404.3 c 0,0 91.8,656.3 340,234.1 0,0 211.1,578.3 431.4,-32.2 -0.3,0 380.7,128.5 380.7,-201.9" style="fill:#d4e4f6;fill-opacity:1;fill-rule:nonzero;stroke:none" transform="matrix(0.13333333,0,0,-0.13333333,0,1066.6667)"/>
      <path id="path112" d="M 7363.3,-2496.3 -2463.5,-6073 c 0,0 896.5,887 600,1508 -296.5,621 -858.9,1243.2 128.8,2149.3 987.7,906.1 1263.098,875 779.196,2031.501 C -1439.4,772.301 126.699,2637.6 1757.8,428.102 3388.9,-1781.4 3467.1,-340 4301,-513.398 5134.9,-686.801 4895.5,-1838.8 5877.8,-1803.4 c 982.3,35.39 1336.9,-284.5 1485.5,-692.9" style="fill:#e8f0fa;fill-opacity:1;fill-rule:nonzero;stroke:none" transform="matrix(0.13333333,0,0,-0.13333333,0,1066.6667)"/>
      <path xmlns="http://www.w3.org/2000/svg" id="path113" d="M 1284.3,2503.4 C 1326.8,2207.4 1209.1,1698.7 985,1510.8 760.898,1322.9 440,1054 408,666.102 378.504,303.199 30.6016,161.898 -150,171.602 h -2.898 c -10.641,0.687 -21.227,2.027 -31.7,4 0,0 -379.398,766.898 112.8988,1239.998 492.3012,473.1 428.2972,498.4 508.2972,845.6 80,347.2 222.601,694.7 534.101,753 310.001,57.9 193.501,340.5 600.001,295.6 h 1.9 l 6,-0.6 c 0,0 -336.9,-509.8 -294.3,-805.8" style="fill:#00673b;fill-opacity:1;fill-rule:nonzero;stroke:none" transform="matrix(0.13333333,0,0,-0.13333333,0,1066.6667)"/>
      <path id="path114" d="m 1572.5,3310 c -46.67,-34.26 -92.7,-69.64 -138.1,-106.1 -64.5,-51.6 -126.2,-106.4 -190,-160 -63.8,-53.6 -126.4,-105.5 -184.4,-163.9 -29.31,-28.74 -56.7,-59.37 -82,-91.7 -25.066,-32.41 -46.93,-67.17 -65.301,-103.8 -37.39,-72.95 -61.304,-152.05 -70.597,-233.5 -10,-81.4 -6.7,-164.1 -12.704,-247 -4.207,-83.78 -24.793,-165.93 -60.597,-241.8 -18.281,-37.57 -39.867,-73.45 -64.504,-107.2 -12.399,-16.7 -23.895,-34 -37.5,-50 -13.598,-16 -25.996,-32.5 -40,-47.6 -56.684,-60.63 -117.492,-117.26 -181.996,-169.5 -62.699,-53.4 -125,-107.7 -174.399,-173 l -18.406,-24.5 c -6.394,-8.1 -11.394,-17.1 -16.996,-25.6 l -17.402,-24.8 -14.696,-26.9 c -4.8,-9.1 -10,-17.8 -14.504,-27.1 l -12.699,-27.9 C 171.5,1248.7 167.102,1239.4 163,1230 l -11.102,-28.6 c -14.398,-38.28 -25.503,-77.73 -33.195,-117.9 -7.699,-40 -11.504,-81.1 -15.504,-122.301 C 89.3555,795.84 52.3242,633.238 -6.80078,478.199 -46.25,372.34 -94.1406,269.809 -150,171.602 h -2.898 c 54.3785,99.109 100.6636,202.437 138.398,309 57.1602,154.828 92.3359,316.898 104.5,481.5 3.5,40.998 6.9961,82.498 14.602,123.598 7.574,40.88 18.679,81.04 33.199,120 l 11.297,29.1 c 4.101,10 8.5,19.1 12.8,28.6 l 12.801,28.4 c 4.5,9.5 10,18.4 14.598,27.7 l 14.902,27.4 16.903,26.4 c 5.695,8.7 10.796,17.8 17.199,26.1 l 18.801,25.1 c 50,66.9 113.398,122.2 176.097,175.9 63.805,52 123.946,108.33 180,168.6 14.199,14.8 26.801,31 40,46.8 13.203,15.8 24.703,32.6 37.102,49 24.195,33.11 45.379,68.32 63.301,105.2 35.265,73.91 55.652,154.03 60,235.8 6.296,81.7 2.996,164.9 13.597,247.6 5,41.47 13.598,82.42 25.703,122.4 12.387,39.89 28.422,78.55 47.899,115.5 19.121,37.06 41.722,72.22 67.5,105 25.918,32.5 53.949,63.27 83.899,92.1 60,57.8 123.7,110 187.5,162.5 63.8,52.5 126.8,105.9 192.3,156.4 45.33,35.13 91.53,69.37 138.6,102.7 h 1.9" style="fill:#ffffff;fill-opacity:1;fill-rule:nonzero;stroke:none" transform="matrix(0.13333333,0,0,-0.13333333,0,1066.6667)"/>
      <path xmlns="http://www.w3.org/2000/svg" id="path115" d="m 3595.2,3067.3 c -11.3,-5.7 -734.5,-367.7 -863.5,-839 -130,-475.1 -336.5,-766.4 -680,-956.1 C 1708.2,1082.5 1462.7,461.102 817.5,424 172.301,386.898 -184.5,175.699 -184.5,175.699 c 0,0 0,10 1.602,27.102 0,2 0,4 0.496,6.101 12.402,129.2 93.2028,601.098 630.504,824.598 625.998,260 1043.098,378.9 1223.598,856.7 180.5,477.8 388.4,743.8 707,838.3 318.6,94.5 322.7,212.4 567.9,283.5 212,61.5 542.1,58 627.9,56 h 8.4 l 12.3,-0.7" style="fill:#004c39;fill-opacity:1;fill-rule:nonzero;stroke:none" transform="matrix(0.13333333,0,0,-0.13333333,0,1066.6667)"/>
      <path id="path116" d="m 3582.9,3067.7 c -380,-80 -739.2,-247.8 -1050,-477.1 -87.83,-67.79 -169.14,-143.62 -242.9,-226.5 -74.31,-82.33 -136.35,-174.95 -184.2,-275 -24.4,-50 -47.2,-100.6 -71.2,-151 -24,-50.4 -49.5,-100 -76.8,-149 -13.4,-24.5 -28.2,-48.3 -42.1,-72.5 -13.9,-24.2 -30,-47.3 -44.4,-71.1 -30.8,-46.5 -62.2,-92.8 -94.1,-138.4 -31.9,-45.6 -64.1,-91.3 -97.2,-136.2 -16.4,-22.6 -33.6,-44.6 -50,-66.9 -16.4,-22.3 -34.3,-44.1 -52.4,-65.4 -35.48,-43.33 -73.27,-84.72 -113.2,-124 -39.82,-39.55 -82.62,-75.98 -128,-109 l -17,-12.198 c -5.55,-4.281 -11.33,-8.242 -17.3,-11.902 l -35.4,-22.898 c -12,-7.2 -24.4,-13.903 -36.5,-20.903 -6.1,-3.5 -12.1,-7 -18.3,-10 l -18.8,-9.398 c -50.11,-25.422 -102.3,-46.488 -156,-63 C 983.172,839.289 927.75,828.801 871.699,824 815.898,818.902 759.898,818.902 704.398,817.699 648.988,817.309 593.707,812.398 539.098,803 484.535,792.73 431.211,776.742 380,755.301 277.559,712.242 183.441,651.59 101.898,576.102 20.4805,500.281 -51.2344,414.66 -111.602,321.199 c -25.066,-38.461 -48.699,-77.898 -70.898,-118.301 0,1.903 0,3.903 0.5,6.004 20.934,38.996 43.23,77.2 66.898,114.598 59.4223,94.59 130.2934,181.469 211.0004,258.699 81.9026,76.949 176.6716,138.93 279.9996,183.102 51.696,21.871 105.512,38.328 160.602,49.097 55.027,9.872 110.797,15.082 166.699,15.602 55.801,1.699 111.403,2.102 166.5,7.5 55,5.02 109.364,15.469 162.301,31.199 52.83,16.41 104.15,37.321 153.4,62.5 l 18.5,9.199 c 6.1,3.301 12,6.801 18,10 12,6.903 24.2,13.403 36,20.704 l 34.8,22.5 c 5.8,3.699 11.5,7.598 17,11.798 l 16.8,12.2 c 44.7,32.61 86.83,68.61 126,107.7 39.41,39.01 76.7,80.09 111.7,123.1 17.9,21.09 34.7,43.2 51.9,65 17.2,21.8 33.7,44.2 50,66.8 32.9,44.8 64.7,90 96.7,136 32,46 63.5,91.5 94,137.7 14.8,23.6 30,46.9 44.4,70.59 14.4,23.71 28.7,47.61 41.9,71.91 27.3,48.4 52.5,97.8 76.7,147.9 24.2,50.1 47,100.8 71.7,151 48.63,101.18 111.65,194.78 187.1,277.9 37.3,41.9 76.7,81.6 117.7,120 41,38.4 84.2,73.5 128.6,107.4 89.25,67.34 183.53,127.75 282,180.7 48.8,26.67 98.27,52.43 148.4,77.3 25.1,12 50,24.4 75.8,35.4 l 38.2,17 38.7,16 c 150.78,61.41 307,108.48 466.6,140.6 l 8.3,0.1" style="fill:#ffffff;fill-opacity:1;fill-rule:nonzero;stroke:none" transform="matrix(0.13333333,0,0,-0.13333333,0,1066.6667)"/>
      <path xmlns="http://www.w3.org/2000/svg" id="path117" d="m 2818.5,873.102 -13.5,-8.602 -5,-3.098 c -75.6,-48.504 -364.5,-240 -496.8,-420 C 2150.2,233.5 1887.7,9.30078 1496,85.5 1104.3,161.699 648.398,68.8008 596.004,-171 c -42.902,-194.801 -597.30088,-243.398 -750,68.5 l -1.707,3.6016 C -189.801,-27.1992 -202.898,63.5 -183.996,175.5 c 0,0 479.195,518.699 820,440 340.793,-78.699 478.096,-49.098 669.196,32.5 191.1,81.602 365.4,110 567.8,90 202.4,-20 387.9,193.59 613.2,162.199 225.3,-31.398 332.3,-27.097 332.3,-27.097" style="fill:#1d9336;fill-opacity:1;fill-rule:nonzero;stroke:none" transform="matrix(0.13333333,0,0,-0.13333333,0,1066.6667)"/>
      <path id="path118" d="m 2950,848.199 c -49.58,8.321 -99.73,12.731 -150,13.203 1.8,1.098 3.5,2.297 5,3.098 48.69,-1.602 97.17,-7.059 145,-16.301" style="fill:#ffffff;fill-opacity:1;fill-rule:nonzero;stroke:none" transform="matrix(0.13333333,0,0,-0.13333333,0,1066.6667)"/>
      <path id="path119" d="m 2805,864.5 -5,-3.098 c -23.8,0 -47.6,-0.933 -71.4,-2.8 -73.57,-5.911 -145.5,-24.911 -212.4,-56.102 -8.2,-4.199 -16.8,-7.602 -24.7,-12.301 l -24,-13.5 -22.9,-15.097 c -7.6,-5 -14.6,-11 -21.9,-16.5 -28.39,-23.301 -54.62,-49.11 -78.4,-77.102 -23.81,-28.668 -49.39,-55.828 -76.6,-81.301 -28.17,-25.078 -60.09,-45.59 -94.6,-60.797 -34.47,-15.101 -70.63,-26.004 -107.7,-32.5 -37.06,-5.871 -74.63,-7.839 -112.1,-5.902 -37.2,1.301 -73.9,4.199 -110.6,4.301 -36.82,0.148 -73.58,-2.5 -110,-7.899 l -27.1,-4.414 -26.8,-5.789 c -17.9,-3.801 -35.7,-9.097 -53.5,-13.5 -35.3,-10 -70.5,-21 -104.7,-34.5 -34.2,-13.5 -67.7,-28.199 -100.9,-44.398 -33.2,-16.199 -65.9,-33.403 -100,-49.403 -34.1,-15.996 -68,-30 -103.2,-43.097 C 1181.61,276.242 1146.05,265.59 1110,256.898 1037.69,238.512 963.313,229.469 888.703,230 c -74.902,0.902 -148.605,13.301 -221.601,21.301 -36.52,4.219 -73.243,6.39 -110,6.5 L 529.602,257 h -13.704 l -13.796,-1.301 -27.403,-2.398 C 465.602,252.5 456.598,250.602 447.5,249.398 374.727,238.402 303.742,217.789 236.402,188.102 169.336,157.891 105.648,120.691 46.4023,77.1016 -13.25,33.5 -69.332,-14.7813 -121.297,-67.3008 c -11.07,-11.1992 -22.004,-22.5703 -32.805,-34.0972 -0.597,1.097 -1.097,2.398 -1.699,3.4996 10,11.5 20.699,22.6992 31.301,33.8007 C -73.3047,-10.8086 -17.9961,38.3711 40.8984,83 c 59.4846,44.719 123.5396,83 191.0976,114.199 68.024,30.781 139.813,52.43 213.504,64.403 9.199,1.296 18.402,3.296 27.602,4.199 l 27.902,2.699 13.894,1.398 c 4.704,0 9.399,0 14.004,0.704 l 27.996,1 c 37.286,0.199 74.551,-1.801 111.606,-6 73.996,-7.801 146.797,-20 220,-20 73.402,-0.153 146.526,9.05 217.596,27.398 35.67,8.762 70.85,19.41 105.4,31.898 34.47,12.602 68.3,26.872 101.5,42.801 33.2,15.801 66.1,32.801 99.5,49.102 33.4,16.301 67.6,31.301 102.4,44.601 34.8,13.297 70,24.297 106.3,34.598 18,4.398 35.9,10 54.2,13.398 l 27.4,5.911 27.8,4.492 c 37.02,5.398 74.4,7.91 111.8,7.5 37.3,0 74.4,-3.199 111.2,-4.602 36.45,-2.019 73.01,-0.277 109.1,5.199 35.99,5.872 71.16,15.942 104.8,30 33.46,14.422 64.49,33.922 92,57.813 27.09,24.852 52.58,51.398 76.3,79.488 24.29,28.18 51.07,54.121 80,77.5 7.6,5.512 14.7,11.602 22.7,16.602 l 23.6,15.097 24.5,13.5 c 8.1,4.704 16.8,8.102 25.2,12.204 68.1,30.367 141.08,48.32 215.5,53 25.86,1.839 51.79,2.308 77.7,1.398" style="fill:#ffffff;fill-opacity:1;fill-rule:nonzero;stroke:none" transform="matrix(0.13333333,0,0,-0.13333333,0,1066.6667)"/>
    </g>
  </g>
</svg>