<svg width="40" height="40" viewBox="0 0 40 40" fill="none" xmlns="http://www.w3.org/2000/svg">
<rect width="40" height="40" rx="12" fill="#004C39"/>
<g clip-path="url(#clip0_1086_2)">
<path d="M31.418 13.6152C31.9443 12.3778 31.865 11.0893 31.1284 10.2212C30.2339 9.16859 28.6288 9.06341 27.1292 9.80007C28.7256 10.8709 30.1685 12.1544 31.418 13.6152Z" fill="#FF0000"/>
<path d="M11.2657 25.5472C11.1427 25.8562 10.9297 26.1211 10.6541 26.3073C10.3786 26.4935 10.0534 26.5925 9.7208 26.5913H8.25135C8.17727 26.5932 8.10355 26.5803 8.03454 26.5533C7.96553 26.5263 7.90262 26.4858 7.84954 26.4341C7.79645 26.3824 7.75426 26.3206 7.72545 26.2523C7.69664 26.184 7.68179 26.1107 7.68179 26.0366C7.68179 25.9624 7.69664 25.8891 7.72545 25.8208C7.75426 25.7525 7.79645 25.6907 7.84954 25.639C7.90262 25.5873 7.96553 25.5468 8.03454 25.5198C8.10355 25.4928 8.17727 25.4799 8.25135 25.4818H9.7208C9.83172 25.4822 9.94018 25.4492 10.0321 25.3872C10.124 25.3251 10.1952 25.2368 10.2363 25.1338C10.2627 25.0652 10.3024 25.0025 10.3533 24.9494C10.4041 24.8963 10.465 24.8539 10.5323 24.8245C10.5997 24.7951 10.6723 24.7794 10.7458 24.7783C10.8193 24.7772 10.8922 24.7907 10.9605 24.818C11.0287 24.8453 11.0908 24.8859 11.1432 24.9375C11.1956 24.989 11.2373 25.0505 11.2658 25.1182C11.2942 25.186 11.3089 25.2588 11.3091 25.3323C11.3092 25.4058 11.2947 25.4786 11.2664 25.5464L11.2657 25.5472ZM14.9095 18.2722C15.1839 18.2723 15.4521 18.191 15.6802 18.0387C15.9084 17.8863 16.0862 17.6697 16.1913 17.4162C16.2963 17.1628 16.3239 16.8839 16.2704 16.6148C16.2169 16.3457 16.0848 16.0985 15.8909 15.9045C15.6969 15.7105 15.4497 15.5783 15.1806 15.5248C14.9116 15.4712 14.6327 15.4987 14.3792 15.6036C14.1257 15.7086 13.909 15.8864 13.7566 16.1145C13.6042 16.3426 13.5228 16.6108 13.5228 16.8852C13.5228 17.253 13.6689 17.6057 13.9289 17.8658C14.189 18.126 14.5417 18.2721 14.9095 18.2722ZM19.3473 15.4985C17.971 15.4985 17.7196 19.4064 17.6872 21.6006H16.9234C16.8278 21.6006 16.7338 21.5758 16.6506 21.5287C16.5674 21.4816 16.4978 21.4138 16.4486 21.3318L15.4254 19.6323C15.2775 19.3864 15.0685 19.1829 14.8188 19.0417C14.569 18.9005 14.2869 18.8263 14 18.8264H12.6852C12.6677 18.8252 12.6501 18.8252 12.6326 18.8264H11.1574C10.8484 18.8263 10.5455 18.9123 10.2827 19.0747C10.0199 19.2371 9.80748 19.4696 9.66937 19.746L8.86659 21.3535C8.8045 21.4846 8.79623 21.6348 8.84356 21.772C8.89089 21.9091 8.99005 22.0223 9.1198 22.0872C9.24954 22.1521 9.39956 22.1636 9.5377 22.1193C9.67584 22.075 9.79113 21.9783 9.85885 21.85L10.6616 20.244C10.7076 20.1519 10.7784 20.0745 10.866 20.0204C10.9535 19.9663 11.0545 19.9377 11.1574 19.9378H11.8333L10.8608 22.3082C10.712 22.6702 10.6958 23.0731 10.8148 23.4459C10.9338 23.8188 11.1806 24.1377 11.5116 24.3465L13.7997 25.7912V28.2583C13.7977 28.3324 13.8106 28.4061 13.8376 28.4751C13.8646 28.5441 13.9052 28.6071 13.9569 28.6601C14.0086 28.7132 14.0704 28.7554 14.1387 28.7842C14.2069 28.813 14.2803 28.8279 14.3544 28.8279C14.4285 28.8279 14.5019 28.813 14.5701 28.7842C14.6384 28.7554 14.7002 28.7132 14.7519 28.6601C14.8036 28.6071 14.8442 28.5441 14.8712 28.4751C14.8982 28.4061 14.9111 28.3324 14.9091 28.2583V25.4834C14.9091 25.3897 14.8853 25.2975 14.8401 25.2154C14.7948 25.1334 14.7296 25.064 14.6504 25.0139L13.5178 24.2989L14.9045 20.9188L15.4977 21.9037C15.6456 22.1497 15.8547 22.3532 16.1046 22.4945C16.3545 22.6357 16.6368 22.7098 16.9238 22.7096H18.2475C18.3194 22.7097 18.3905 22.7239 18.4569 22.7515C18.5232 22.7792 18.5835 22.8197 18.6342 22.8706C18.6848 22.9216 18.7249 22.9821 18.7521 23.0487C18.7793 23.1152 18.7931 23.1864 18.7927 23.2583V23.2695C18.7893 23.4151 18.7296 23.5537 18.6261 23.6561C18.5226 23.7585 18.3834 23.8168 18.2378 23.8187C17.9323 23.8403 17.7386 24.1071 17.7602 24.4126C18.0727 28.8109 18.9977 28.8109 19.3457 28.8109C20.848 28.8109 21.0085 24.1559 21.0085 22.1547C21.0085 20.1535 20.8465 15.4981 19.3457 15.4981L19.3473 15.4985Z" fill="white"/>
<path d="M18.7266 9.65352C17.8261 9.70738 16.9351 9.86716 16.0719 10.1295C13.4204 10.9049 11.6183 12.3797 10.6156 13.3569C10.613 13.3592 10.6107 13.3618 10.6087 13.3647C10.5074 13.4923 10.3121 13.79 10.3863 14.1118C10.5116 14.6145 11.2371 14.838 11.7637 14.763C12.1381 14.7131 12.4126 14.4896 12.5371 14.3639L12.5406 14.3608C13.3422 13.6597 14.6941 12.6593 16.6214 12.0831C17.5899 11.8017 18.5932 11.6585 19.6017 11.6578C22.5572 11.6578 25.2119 12.86 27.1423 14.79C28.1341 15.7792 28.9212 16.9541 29.4587 18.2476C29.9962 19.5412 30.2734 20.9279 30.2746 22.3287C30.2746 25.2842 29.0723 27.9393 27.1423 29.8693C25.2123 31.7993 22.5592 33.0015 19.6017 33.0015C16.943 33.0021 14.3797 32.0107 12.4134 30.2212C12.2336 30.0226 12.0114 29.8669 11.7634 29.7657C10.9621 29.4149 9.86003 29.5901 9.73474 30.0159C9.70999 30.0901 9.70999 30.2127 9.8055 30.4319C9.80851 30.4382 9.81213 30.4442 9.81633 30.4497C10.0568 30.7453 10.3139 31.027 10.5862 31.2935C12.6651 33.372 14.9443 34.1736 15.7711 34.4257C17.677 35.0193 19.6957 35.1567 21.6645 34.8269C23.6332 34.4972 25.497 33.7095 27.1055 32.5273C28.714 31.3452 30.0222 29.8017 30.9248 28.0212C31.8274 26.2407 32.299 24.2731 32.3016 22.2769C32.3016 18.7703 30.8739 15.6396 28.5696 13.3353C26.5751 11.3411 23.9738 10.0671 21.1756 9.71384C21.1566 9.71151 21.1391 9.7024 21.1263 9.68819C21.1135 9.67398 21.1063 9.65562 21.106 9.6365L21.116 8.2587V8.23821C21.116 8.21708 21.1244 8.19682 21.1394 8.18188C21.1543 8.16694 21.1746 8.15855 21.1957 8.15855H23.4954C23.5875 8.1587 23.6788 8.14066 23.764 8.10546C23.8492 8.07026 23.9266 8.0186 23.9917 7.95343C24.0569 7.88826 24.1086 7.81087 24.1438 7.7257C24.179 7.64052 24.197 7.54924 24.1968 7.45708V5.78074C24.1961 5.57383 24.1136 5.3756 23.9672 5.22933C23.8209 5.08305 23.6226 5.00061 23.4157 5H16.3573C16.2652 4.99985 16.174 5.01788 16.0888 5.05306C16.0037 5.08824 15.9264 5.13987 15.8612 5.205C15.7961 5.27013 15.7445 5.34748 15.7093 5.43261C15.6741 5.51774 15.6561 5.60897 15.6562 5.70108V7.37471C15.6567 7.58166 15.7392 7.77998 15.8855 7.92635C16.0317 8.07272 16.23 8.15523 16.437 8.15584H18.657C18.6675 8.15584 18.6778 8.1579 18.6875 8.1619C18.6972 8.16591 18.7059 8.17177 18.7133 8.17917C18.7207 8.18657 18.7266 8.19535 18.7306 8.20501C18.7346 8.21468 18.7367 8.22504 18.7367 8.2355V8.25599" fill="white"/>
</g>
<defs>
<clipPath id="clip0_1086_2">
<rect width="30" height="30" fill="white" transform="translate(5 5)"/>
</clipPath>
</defs>
</svg>
