<?xml version="1.0" encoding="UTF-8" standalone="no"?>
<svg
   xmlns:dc="http://purl.org/dc/elements/1.1/"
   xmlns:cc="http://creativecommons.org/ns#"
   xmlns:rdf="http://www.w3.org/1999/02/22-rdf-syntax-ns#"
   xmlns:svg="http://www.w3.org/2000/svg"
   xmlns="http://www.w3.org/2000/svg"
   viewBox="0 0 1706.6667 1066.6667"
   height="1066.6667"
   width="1706.6667"
   xml:space="preserve"
   id="svg2"
   version="1.1"><metadata
     id="metadata8"><rdf:RDF><cc:Work
         rdf:about=""><dc:format>image/svg+xml</dc:format><dc:type
           rdf:resource="http://purl.org/dc/dcmitype/StillImage" /></cc:Work></rdf:RDF></metadata><defs
     id="defs6"><clipPath
       id="clipPath136"
       clipPathUnits="userSpaceOnUse"><path
         id="path134"
         d="M 5992.5,3821.4 5745,3431 l -401.4,-253 90.7,-162.3 415.2,272.3 247.4,461.9 z" /></clipPath><clipPath
       id="clipPath162"
       clipPathUnits="userSpaceOnUse"><path
         id="path160"
         d="m 5780,3081.7 c -3.7,-20 -61.2,-341.4 24.1,-721.3 0,0 -322.7,105.4 -641.6,18.4 0,0 164.9,201.6 124.6,340.9 -40.3,139.3 -293.3,447.3 150,553.6 l 291.8,40 c 0,0 51.1,-231 51.1,-231.6 z" /></clipPath><clipPath
       id="clipPath190"
       clipPathUnits="userSpaceOnUse"><path
         id="path188"
         d="m 6467.2,3652.7 c 0,0 -328.1,-395.9 -348.3,-408.7 -20.2,-12.8 -338.9,-161.3 -338.9,-161.3 v -1 c -3.7,-20 -61.2,-341.4 24.1,-721.3 0,0 -322.7,105.4 -641.6,18.4 0,0 164.9,201.6 124.6,340.9 -40.3,139.3 -293.3,447.3 150,553.6 l 291.8,40 330,95.5 335.4,326.2 z" /></clipPath></defs><g
     transform="matrix(1.3333333,0,0,-1.3333333,0,1066.6667)"
     id="g10"><g
       transform="scale(0.1)"
       id="g12"><path
         id="path14"
         style="fill:#ffffff;fill-opacity:1;fill-rule:nonzero;stroke:none"
         d="M 0,8000 H 12800 V 0 H 0 v 8000" /><path
         id="path16"
         style="fill:#ffffff;fill-opacity:1;fill-rule:nonzero;stroke:none"
         d="M 0,8000 H 12800 V 0 H 0 v 8000" /><path
         id="path18"
         style="fill:#e8f0fa;fill-opacity:1;fill-rule:nonzero;stroke:none"
         d="M 21816,2646 3910,-2154.8 c 0,0 1720,1428.101 1293,2570.499 C 4776,1558.1 3878.3,2743.5 5762.3,4191.4 c 1884,1447.9 2654,1560 1689.4,3467.4 -964.6,1907.4 2376.3,5170 4916.1,1016.2 2539.8,-4153.8 2900,-1620.8 4345.9,-2055 1445.9,-434.2 845.5,-2432.2 2585.7,-2521.6 C 21039.6,4009 21616.5,3390 21816,2646" /><path
         id="path20"
         style="fill:#f685c8;fill-opacity:1;fill-rule:nonzero;stroke:none"
         d="m 12097.7,393.102 c 0,0 477.6,322.097 347.5,763.098 -130.1,441 -84.4,433.8 -15.2,663.8 69.2,230 101.4,480.5 -61.4,618.5 -162.8,138 2.5,265.3 -257.1,374.9 0,0 26.9,-410 -96.6,-569.4 -123.5,-159.4 -224.4,-495.7 -155.9,-680 68.5,-184.3 166.7,-449.1 55.8,-686.398 -110.9,-237.301 75.2,-448.102 182.9,-484.5" /><path
         id="path22"
         style="fill:#ffffff;fill-opacity:1;fill-rule:nonzero;stroke:none"
         d="m 12020,293.5 c 60.8,92.07 106.4,193.379 134.9,300 14,53.059 22.9,107.34 26.6,162.102 l 1.4,20.5 c 0,6.898 0,13.699 0,20.597 v 20.602 10 c 0,3.5 0,6.898 0,10 l -2.2,41 c -1,13.418 -2.8,26.769 -5.3,40 -2.6,13.301 -6,26.597 -9.2,40 -3.2,13.398 -6.4,26.898 -9.5,40 -6,26.999 -11.4,54.099 -16.8,81.099 -10.7,54 -21.3,108.1 -31.7,162.3 -10,54.2 -20,108.4 -28.4,163 -8.8,54.65 -14.7,109.73 -17.7,165 l -0.8,20.8 c 0,6.9 0,13.9 0,20.8 0,6.9 0,13.9 0,20.8 l 0.9,20.8 v 10 l 1,10 1.9,20.8 c 0.7,6.9 1.9,13.8 2.8,20.7 0.9,6.9 1.8,13.8 3.3,20.6 9.3,54.99 26.4,108.37 50.9,158.5 12.6,24.83 27.1,48.67 43.4,71.3 16,22.7 33.2,44.2 48.6,66.7 7.7,11.18 14.8,22.76 21.3,34.7 12.8,23.85 21.8,49.52 26.8,76.1 2.5,13.22 4.2,26.58 5.1,40 4.5,54.4 -4.7,108.9 -16.1,162.6 -11.4,53.7 -25.8,107 -40,160 -14.2,53 -28.2,106.6 -43,160 -14.8,53.4 -30,105.9 -46.6,158.6 17.5,-52.34 34.2,-104.87 50,-157.6 15.7,-52.8 30.7,-105.9 45.8,-158.9 7.5,-26.5 14.7,-53.1 21.8,-80 7.1,-26.9 13.9,-53.4 20,-80 6.1,-26.6 11.5,-54.1 15.1,-81.7 3.7,-27.6 4.8,-55.5 3.1,-83.31 -0.8,-13.97 -2.4,-27.9 -4.8,-41.69 -2.6,-13.8 -6.1,-27.4 -10.6,-40.7 -4.6,-13.31 -10.2,-26.25 -16.8,-38.7 -6.6,-12.32 -13.9,-24.28 -21.8,-35.8 -15.6,-23.11 -32.8,-44.6 -48.4,-67.1 -15.9,-22.21 -30,-45.61 -42.3,-70 -23.7,-49.16 -40.3,-101.45 -49.2,-155.3 -9,-53.98 -12,-108.77 -9,-163.4 2.8,-54.8 8.4,-109.4 17,-163.6 8.1,-54.4 17.8,-108.6 27.8,-162.7 10,-54.1 20,-108.3 31.1,-162.3 5.2,-27.1 10.6,-54 16.4,-80.899 2.8,-13.5 5.8,-26.91 8.9,-40 3.1,-13.102 6.4,-26.801 8.9,-40.602 2.4,-13.738 4.1,-27.59 5,-41.5 l 1.8,-41.597 c 0,-3.403 0,-6.903 0,-10 v -10 -20.801 c 0,-7.012 0,-13.899 -0.6,-20.813 l -1.6,-20.687 c -4.3,-55.192 -13.8,-109.852 -28.6,-163.199 -15,-53.223 -34.5,-105.051 -58.4,-154.903 l -9,-18.711 c -3,-6.199 -6.4,-12.187 -9.5,-18.297 -6.3,-12.289 -13.2,-24.293 -20,-36.293 C 12050,340 12035.2,316.199 12020,293.5" /><path
         id="path24"
         style="fill:#b1d0ef;fill-opacity:1;fill-rule:nonzero;stroke:none"
         d="m 12325.4,-312.898 c 0,0 183.3,358.4996 -108.4,709.398 -291.7,350.898 -503,552.402 -460.9,893.7 42.1,341.3 1.4,564.9 -158.9,720.9 -160.3,156 -125.8,227.7 -250,346.9 -124.2,119.2 -369.3,236.1 -369.3,236.1 0,0 323.3,-446.7 251.9,-770 -71.4,-323.3 -39.4,-562.11 105.8,-782.7 145.2,-220.599 97.2,-667.9 470,-892.099 372.8,-224.1994 519.8,-462.199 519.8,-462.199" /><path
         id="path26"
         style="fill:#ffffff;fill-opacity:1;fill-rule:nonzero;stroke:none"
         d="m 12318.5,-370.5 c 5.1,71.191 2,142.719 -9.2,213.199 -11.3,70.4299 -32.5,138.9221 -62.8,203.5002 -8,15.8008 -15.6,31.9024 -24.5,47.3008 -8.9,15.402 -18.2,30.602 -28.2,45.301 -20.4,29.168 -42.4,57.211 -65.8,84 l -139.3,162.5 c -46.4,54.199 -92.8,108.398 -138.4,163.301 -22.8,27.468 -45.4,55.128 -67.8,83 -22.2,27.898 -44.2,56.097 -64.6,85.5 -40.1,59.457 -74.2,122.738 -101.8,188.898 -3.7,8.199 -6.6,16.602 -10,25 l -10,25 -8.8,25.402 c -2.9,8.496 -5.8,16.899 -8.3,25.498 -5.2,17.1 -10.6,34.2 -15,51.6 -2.3,8.6 -4.7,17.2 -6.8,25.9 l -6.2,26.1 c -16.2,70 -26.9,140.5 -36.3,211.3 -9.4,70.8 -18.7,141.7 -21,213.3 -1.3,35.8 -0.5,71.7 1.6,107.4 2.1,35.7 5.8,71.2 7.2,106.7 2.7,71.07 -5.9,142.11 -25.4,210.5 -19,68.59 -46.7,134.48 -82.3,196.1 -35.7,61.68 -77.3,119.78 -124.1,173.5 l -17.2,20 -18.2,20 -18.3,20 c -6.1,6.5 -12,13.2 -18.5,19.3 l -38.3,37.3 -10,9.3 -10,8.9 -20,17.8 -20,17.8 -10,8.9 -10,8.5 -40.2,32.9 c -13.5,11.5 -28.1,21.9 -42.2,32.8 l -42.7,32.2 43,-31.8 c 14.3,-10.7 28.9,-20.9 42.6,-32.4 l 41.8,-33.5 10,-8.4 c 3.4,-2.8 6.7,-5.8 10,-8.8 l 20,-17.6 20,-17.6 10,-8.8 10,-9.3 38.7,-37 c 6.6,-6 12.5,-12.7 18.7,-19.1 l 18.5,-19.4 18.5,-19.4 17.5,-20 c 47.3,-53.63 89.4,-111.65 125.6,-173.3 36.2,-61.88 64.5,-128.11 84,-197.1 20.2,-68.99 29.1,-140.77 26.5,-212.6 -1.3,-35.8 -5.1,-71.3 -7,-106.91 -1.9,-35.59 -2.8,-70.99 -1.4,-106.59 2.4,-71.1 12.2,-141.7 21.3,-212.5 9.1,-70.8 20,-141.1 36.5,-210 l 6.1,-26 c 2.1,-8.6 4.5,-17.2 6.8,-25.8 4.3,-17.2 10,-34.2 14.7,-51.2 2.5,-8.6 5.4,-17.002 8.3,-25.4 l 8.6,-25.199 10,-24.903 c 3.3,-8.296 6.2,-16.699 10,-24.796 27.3,-65.68 61,-128.512 100.6,-187.602 20,-29.102 42.1,-57.301 64.2,-85.199 22.1,-27.899 44.7,-55.5 67.5,-83 45.6,-54.801 91.5,-109.403 137.7,-163.801 l 138.4,-163.301 c 23.4,-27.09 45.3,-55.398 65.7,-84.801 10,-14.898 19.4,-30 28.1,-45.7964 8.7,-15.8008 16.5,-31.7032 24.4,-47.8008 29.8,-65.1211 50.3,-134.0899 61,-204.8988 10.3,-70.82 12.5,-142.593 6.5,-213.902" /><path
         id="path28"
         style="fill:#f685c8;fill-opacity:1;fill-rule:nonzero;stroke:none"
         d="m 11630,130 c -24,158.402 -143.4,345.199 -397.9,431.301 -254.5,86.097 -333.3,304.699 -353.4,477.299 -20.1,172.6 -157.6,424.1 -157.6,424.1 l 7,-4 3,-1.8 c 62.5,-33.85 127.2,-63.65 193.5,-89.2 142.2,-56.8 179.2,-243.8 304.5,-299.3 125.3,-55.5 217.7,-129.998 302.2,-241.798 84.5,-111.801 154.8,-174.5 380.6,-242.114 225.8,-67.59 333.1,-530.7888 333.1,-530.7888 -4.7,-13 -10,-25.1992 -15.3,-36.7109 0.1,-0.3164 0.1,-0.6563 0,-0.9883 -157,-329 -575.8,-43.5 -599.7,114" /><path
         id="path30"
         style="fill:#ffffff;fill-opacity:1;fill-rule:nonzero;stroke:none"
         d="m 12229.3,16.1992 c -58.2,34 -114.9,70.6719 -170,109.9998 -75.7,54.492 -147.3,114.371 -214.3,179.199 -33.6,32.403 -65.7,66.301 -97,100.801 -31.3,34.5 -62.5,68.801 -95.8,101.102 -33.3,32.301 -68.2,63 -104.4,92.097 -36,29.231 -73.5,56.594 -112.3,82.004 -19.6,12.399 -39.6,24.129 -60,35.2 -20,11.199 -41.1,22.199 -60.8,35.097 -19.6,12.93 -38.2,27.172 -55.9,42.602 -8.9,7.597 -17.5,15.597 -26.1,23.398 l -25.1,24.5 c -32.9,33.262 -62.8,69.403 -89.3,108 -26.7,38.403 -50,78.501 -75.2,117.801 -49.3,78.69 -103.8,153.99 -163.1,225.4 -47.7,57.6 -98.1,112.76 -151.4,165.5 l 3,-1.7 c 53.3,-51.06 103.9,-104.74 151.7,-161 60.4,-71.04 116,-146.08 166.3,-224.6 l 37.5,-58.9 18.8,-29.399 c 6.4,-10 12.7,-19.399 19.4,-28.801 26.4,-38.109 56.1,-73.809 88.8,-106.699 l 25,-24.199 c 8.6,-7.7 17,-15.704 25.8,-23.102 17.5,-15.141 36,-29.098 55.3,-41.801 19.2,-12.597 40,-23.398 60,-34.597 20,-11.204 40.7,-22.801 60,-35.301 39,-25.692 76.6,-53.36 112.8,-82.899 36.3,-29.3 71.4,-60 104.7,-92.902 33.3,-32.898 64.8,-67.301 96,-101.801 31.2,-34.5 62.9,-68.5 96,-101 66.4,-65.07 137.4,-125.301 212.4,-180.199 54.1,-40 110,-77.5 167.8,-112.3008 l -0.6,-1.5" /><path
         id="path32"
         style="fill:#3d4287;fill-opacity:1;fill-rule:nonzero;stroke:none"
         d="M 8687.1,1206.3 V 2020 H 7873.2 V 1206.1 L 7460.8,1041.2 H 9100 l -412.9,165.1" /><path
         id="path34"
         style="fill:#3d4287;fill-opacity:1;fill-rule:nonzero;stroke:none"
         d="m 6291.7,5013.6 h 4080 c 50.8,0.06 92,-41.09 92.1,-91.9 0,-0.03 0,-0.07 0,-0.1 v 0 -2973.8 c 0,-50.86 -41.2,-92.1 -92.1,-92.1 h -4080 c -50.86,0 -92.1,41.24 -92.1,92.1 v 0 0 2973.8 c 0.05,50.82 41.28,92 92.1,92 v 0" /><path
         id="path36"
         style="fill:#ffffff;fill-opacity:1;fill-rule:nonzero;stroke:none"
         d="m 6361.5,4925.6 h 3940 c 53.8,0 97.4,-43.61 97.4,-97.4 v -2699 c 0,-53.8 -43.6,-97.4 -97.4,-97.4 h -3940 c -53.79,0 -97.4,43.6 -97.4,97.4 v 2699 c 0,53.79 43.61,97.4 97.4,97.4" /><path
         id="path38"
         style="fill:#31376e;fill-opacity:1;fill-rule:nonzero;stroke:none"
         d="m 10023.3,4934.9 c 0,0 14.7,319 -206.9,319 H 8043.5 c 0,0 182.2,-126.5 147.7,-319 h 1832.1" /><path
         id="path40"
         style="fill:#9471bf;fill-opacity:1;fill-rule:nonzero;stroke:none"
         d="m 7812.7,5259.3 c 225.5,0 1616.8,11 1831.3,5.6 h 8.1 c 66.7,-1.8 112.9,0 107.4,-10.7 -44.3,-88.6 -121.8,-360.5 -126.5,-627 -9,-512.3 11.4,-1270.6 19.2,-1530.8 1.46,-49.02 -37.1,-89.94 -86.12,-91.4 -0.03,0 -0.05,0 -0.08,0 H 7762.4 c -48.4,0.05 -87.87,38.81 -88.8,87.2 -6.3,339.5 -26.7,1564.3 1.7,1777.1 32.9,247.1 65.9,390 137.4,390" /><path
         id="path42"
         style="fill:#d9c1e5;fill-opacity:1;fill-rule:nonzero;stroke:none"
         d="m 7444.3,3323.6 c 0,0 -15.9,-319 222.3,-319 h 1905.9 c 0,0 -195.8,126.5 -158.8,319 H 7444.3" /><path
         id="path44"
         style="fill:#ffffff;fill-opacity:1;fill-rule:nonzero;stroke:none"
         d="m 7944.7,4998.1 h 1385.8 v -16.5 H 7944.7 v 16.5" /><path
         id="path46"
         style="fill:#ffffff;fill-opacity:1;fill-rule:nonzero;stroke:none"
         d="m 7944.7,4786.4 h 1385.8 v -16.5 H 7944.7 v 16.5" /><path
         id="path48"
         style="fill:#ffffff;fill-opacity:1;fill-rule:nonzero;stroke:none"
         d="m 7944.7,4574.7 h 1385.8 v -16.5 H 7944.7 v 16.5" /><path
         id="path50"
         style="fill:#ffffff;fill-opacity:1;fill-rule:nonzero;stroke:none"
         d="m 7944.7,4362.9 h 1385.8 v -16.5 H 7944.7 v 16.5" /><path
         id="path52"
         style="fill:#ffffff;fill-opacity:1;fill-rule:nonzero;stroke:none"
         d="m 7944.7,4151.2 h 1385.8 v -16.5 H 7944.7 v 16.5" /><path
         id="path54"
         style="fill:#ffffff;fill-opacity:1;fill-rule:nonzero;stroke:none"
         d="M 7944.7,3939.5 H 9330.5 V 3923 H 7944.7 v 16.5" /><path
         id="path56"
         style="fill:#ffffff;fill-opacity:1;fill-rule:nonzero;stroke:none"
         d="m 7944.7,3727.8 h 1385.8 v -16.5 H 7944.7 v 16.5" /><path
         id="path58"
         style="fill:#ffffff;fill-opacity:1;fill-rule:nonzero;stroke:none"
         d="m 7944.7,3516 h 1385.8 v -16.5 H 7944.7 v 16.5" /><path
         id="path60"
         style="fill:#9471bf;fill-opacity:1;fill-rule:nonzero;stroke:none"
         d="m 7922.7,5006.4 h 764.4 V 4121 h -764.4 v 885.4" /><path
         id="path62"
         style="fill:#ffffff;fill-opacity:1;fill-rule:nonzero;stroke:none"
         d="m 7989.2,4929.4 h 631.5 V 4198 h -631.5 v 731.4" /><path
         id="path64"
         style="fill:#8d77bb;fill-opacity:1;fill-rule:nonzero;stroke:none"
         d="m 7999.27,4895.84 12.49,10.79 560.93,-649.38 -12.49,-10.79 -560.93,649.38" /><path
         id="path66"
         style="fill:#8d77bb;fill-opacity:1;fill-rule:nonzero;stroke:none"
         d="m 7980.7,4296.95 557.77,652.15 12.54,-10.72 -557.77,-652.16 -12.54,10.73" /><path
         id="path68"
         style="fill:#3b3063;fill-opacity:1;fill-rule:nonzero;stroke:none"
         d="m 10200,4072 c 0,0 -115.4,115.5 -11,121 104.4,5.5 286,27.5 269.5,-77 -16.5,-104.5 -22,-146.7 -60,-150 -38,-3.3 -198.5,106 -198.5,106" /><path
         id="path70"
         style="fill:#fbceba;fill-opacity:1;fill-rule:nonzero;stroke:none"
         d="m 10206.9,4136.4 c 0,0 -93.8,-239.2 54.5,-234.6 52.1,0.1 100.7,26.41 129.2,70 0,0 31.3,-12 39.2,52.8 4.6,38.5 -42.4,62.2 -48.3,1.8 0,0 -35.4,-8.6 -39,43.4 -3.6,52 -30.7,51.4 -60,44.2 -29.3,-7.2 -72,6 -75.6,22.4" /><path
         id="path72"
         style="fill:#fbceba;fill-opacity:1;fill-rule:nonzero;stroke:none"
         d="m 10401.7,3978.8 c 0,0 11.1,-104.7 40,-154.3 0,0 34.4,-35.8 63.6,-46.2 35.5,-12.8 -143.3,-293.9 -195.1,-200.8 -51.8,93.1 -39,137 -39,137 0,0 44.2,60 42.5,68.8 -1.7,8.8 -37.1,131.7 -37.1,131.7 0,0 6.2,116.6 125.1,63.8" /><path
         id="path74"
         style="fill:#31376e;fill-opacity:1;fill-rule:nonzero;stroke:none"
         d="m 11250,821.898 -210,-85.496 v 0 c -12.5,24.7 -440.7,875.798 -474.4,952.698 -168.1,383.6 -152.2,1024.3 -152.2,1024.3 h 430 c 110.9,-284.6 -16.5,-885.4 -16.5,-885.4 208.9,-98.7 423.1,-1006.102 423.1,-1006.102" /><path
         id="path76"
         style="fill:#3d4287;fill-opacity:1;fill-rule:nonzero;stroke:none"
         d="m 10546.4,684.398 c 0,-3.597 -81.4,2.004 -81,-1.5 5.7,-42.738 14.5,-85.027 26.3,-126.496 h -395.5 L 10311.1,680 c 0,0.859 0,1.73 0,2.602 -0.7,78.597 -33.3,923.298 -64.5,1059.998 -31.6,138.4 47.5,973 47.5,973 l 472.4,3.3 C 10814.6,2444 10530,1795 10530,1795 c 148.4,-263.7 5.8,-1028.898 16.4,-1110.602" /><path
         id="path78"
         style="fill:#31376e;fill-opacity:1;fill-rule:nonzero;stroke:none"
         d="M 10096.2,556.402 10311.1,680 c 0,0.859 0,1.73 0,2.602 h 154.5 c 5.6,-42.75 14.4,-85.032 26.2,-126.5 l -395.6,0.3" /><path
         id="path80"
         style="fill:#8284ca;fill-opacity:1;fill-rule:nonzero;stroke:none"
         d="m 10235.6,3657.7 207.1,166.8 c 0,0 209,36.7 270,-350 61,-386.7 132,-760.7 132,-760.7 h -550 c 0,0 50,296.9 0,401.4 -50,104.5 -167.2,507.7 -59.1,542.5" /><path
         id="path82"
         style="fill:#fbceba;fill-opacity:1;fill-rule:nonzero;stroke:none"
         d="M 9940.7,3581.5 9606.8,3808 v 0 c -35.6,28.5 -79.2,64.4 -88.7,77 -16.5,22 -60,104.5 -77,82.5 -17,-22 -66,-110 -38.5,-137.5 27.5,-27.5 77,-33 77,-33 l 43.8,-46.1 290.81,-334.1 c 38.69,-34.9 107.19,74 135.99,124.7 7.9,13.75 3.74,31.27 -9.5,40" /><path
         id="path84"
         style="fill:#3d4287;fill-opacity:1;fill-rule:nonzero;stroke:none"
         d="m 10536.2,3692.5 c 5.5,-60.5 -25.5,-196.1 -132,-236.4 -153.5,-58.3 -249.2,-107.4 -362.1,-138.6 -64.7,-17.9 -178.1,54.3 -228,99.3 l 149.4,149.2 c 0,0 324.6,161.9 385,181.4 60.4,19.5 179.2,38.7 187.7,-54.9" /><path
         id="path86"
         style="fill:#31376e;fill-opacity:1;fill-rule:nonzero;stroke:none"
         d="m 10897.8,550 142.2,186.102 v 0 l 142.9,58.398 1.4,-2.301 85.2,-143.398 L 10897.8,550" /><path
         id="path88"
         style="fill:#8284ca;fill-opacity:1;fill-rule:nonzero;stroke:none"
         d="m 9903.8,3610 c 0,0 27.5,0 33,-22 0,0 22,5.5 27.5,-22 l -143,-159.4 c 0,0 -44,5.5 -33,27.5 0,0 -38.5,11 -27.5,33 l 143,142.9" /><path
         id="path90"
         style="fill:#31376e;fill-opacity:1;fill-rule:nonzero;stroke:none"
         d="m 7855.4,4430.7 v 0 l -125.1,130 -82.4,-82.4 136.3,-151 c 16.7,-33.63 41.43,-62.61 72,-84.4 l 91,-66.9 35.7,48.5 -88.5,66.3 c 0,0 153.8,23.6 209,98.6 l 35.7,48.5 c 0,0 -121.5,-81.1 -283.7,-7.2" /><path
         id="path92"
         style="fill:#31376e;fill-opacity:1;fill-rule:nonzero;stroke:none"
         d="m 6875.8,4154.9 29.5,98.1 -126.4,11 -27.4,-109.5 c -17.92,-33.86 -27.04,-71.69 -26.5,-110 v -112.9 h 60 l 0.9,110.6 c 0,0 110,-110 203.3,-110 h 60 c 0,0 -151.5,81.5 -173.4,222.7" /><path
         id="path94"
         style="fill:#31376e;fill-opacity:1;fill-rule:nonzero;stroke:none"
         d="m 7279.3,5220.9 c -52.1,-271.7 -343.8,-864 -398.1,-1066 l -156.4,47.8 c 0,0 65.2,228.1 85.2,356.3 20,128.2 95.6,425.9 147.8,534.5 0,0 -767,-284.6 -662.7,286.8 -0.5,-0.3 1036.4,112.2 984.2,-159.4" /><path
         id="path96"
         style="fill:#8284ca;fill-opacity:1;fill-rule:nonzero;stroke:none"
         d="m 6278.4,5352.8 c 0,0 -49,-324.5 90,-340 139,-15.5 521.5,28.3 575.8,-26 54.3,-54.3 258.6,-269.5 454.1,-391.2 195.5,-121.7 301.7,-223.5 301.7,-223.5 l 132.5,102.2 c 0,0 -421.5,517.1 -506.3,612.7 -84.8,95.6 -163.5,251.7 -311.3,260 -147.8,8.3 -709,5.8 -736.5,5.8" /><path
         id="path98"
         style="fill:#31376e;fill-opacity:1;fill-rule:nonzero;stroke:none"
         d="m 6553.4,6551.5 c 70,6.8 127.5,-48.4 135.1,-56 60.7,-60.5 54.5,-148.8 44.2,-210 -13.7,-81.5 58.2,-96.4 90,-162.6 30,-62.5 -5.3,-160 -71,-200.8 -90,-56.2 -215.2,8.3 -278,67.2 -134.7,126.3 -90,326.1 -83.9,353.1 6.1,27 47.2,197.6 163.6,209.1" /><path
         id="path100"
         style="fill:#fbceba;fill-opacity:1;fill-rule:nonzero;stroke:none"
         d="m 6665,6455 c 0,0 88.1,-247.7 -38.9,-230 -74.4,10 -111.2,78.6 -111.2,78.6 0,0 -34.9,-6.6 -43.1,36 -5.5,28.3 32.3,54.5 45.5,3.1 0,0 15.1,0 28,33.6 8,21.1 10.9,48.4 40.5,41.8 29.6,-6.6 76,20.9 79.2,36.9" /><path
         id="path102"
         style="fill:#fbceba;fill-opacity:1;fill-rule:nonzero;stroke:none"
         d="m 6647.5,6236.1 c 0,0 -68.1,-97.8 -55,-154.3 13.1,-56.5 -211.2,-79.2 -162.6,24.7 48.6,103.9 84.6,127.5 127.6,225.6 43,98.1 90,-96 90,-96" /><path
         id="path104"
         style="fill:#fbceba;fill-opacity:1;fill-rule:nonzero;stroke:none"
         d="m 6690.9,6144.7 c -42.5,-10 -66.5,-42.3 -56.8,-84.9 40,-176.5 140.7,-595.8 194.4,-596 68,0 318.8,-12 318.8,-12 l 38.5,121 -302.5,-11 -99,456.5 c -6.6,37.9 -9,80 -39.5,103.1 -15.15,13.11 -33.97,21.24 -53.9,23.3" /><path
         id="path106"
         style="fill:#f254b2;fill-opacity:1;fill-rule:nonzero;stroke:none"
         d="m 6689.1,6144.5 v 0 c 43.11,7.22 84.03,-21.5 91.9,-64.5 32.3,-178.1 207.2,-414.1 157.9,-435.3 -62.5,-26.8 -253,5.5 -253,5.5 l -63.1,401.8 c -7.62,43.52 21.48,84.98 65,92.6 0.2,0.03 0.4,0.07 0.6,0.1 l 0.7,-0.2" /><path
         id="path108"
         style="fill:#f685c8;fill-opacity:1;fill-rule:nonzero;stroke:none"
         d="m 6790,5825.8 c -115.5,-236.5 27.5,-473 27.5,-473 h -539 c 0,0 148.5,236.5 82.5,346.5 -66,110 -148.5,324.4 -126.5,385 16.2,44.5 121.8,59.2 176.4,63.9 20,1.7 32.6,2.1 32.6,2.1 l 188.1,3.9 37.4,-3.9 c 33,-5.5 46.1,-10 58.4,-33.3 46.2,-89.3 111.6,-190.6 62.6,-291.2" /><path
         id="path110"
         style="fill:#fbceba;fill-opacity:1;fill-rule:nonzero;stroke:none"
         d="m 7273.8,5589.3 c 0,0 77,44 82.5,60 5.5,16 33,-5.5 5.5,-33 -14.53,-15.18 -31.21,-28.15 -49.5,-38.5 l -38.5,11.5" /><path
         id="path112"
         style="fill:#adadab;fill-opacity:1;fill-rule:nonzero;stroke:none"
         d="m 6483.3,5295.1 h 610 l 255.1,181.6 -601,-8.6 -264.1,-173" /><path
         id="path114"
         style="fill:#dfdfdd;fill-opacity:1;fill-rule:nonzero;stroke:none"
         d="m 7348,5476.7 -255.1,-181.6 v 564.3 l 244.9,222.1 10,-604.8" /><path
         id="path116"
         style="fill:#fbceba;fill-opacity:1;fill-rule:nonzero;stroke:none"
         d="m 6520,5479.3 c 0,0 104.5,-27.5 121,-22 16.5,5.5 71.5,38.5 110,22 29.94,-14.62 58.61,-31.71 85.7,-51.1 4.88,-3.43 6.05,-10.17 2.61,-15.05 -1.41,-2 -3.46,-3.46 -5.81,-4.15 -10.8,-2.69 -22.03,-3.1 -33,-1.2 -42.88,5.44 -86.45,-0.24 -126.5,-16.5 -28.6,-12.2 -192.5,22 -192.5,22 l 38.5,66" /><path
         id="path118"
         style="fill:#fbceba;fill-opacity:1;fill-rule:nonzero;stroke:none"
         d="m 6308.2,6128 v 0 c -43.24,7.2 -84.22,-21.74 -91.9,-64.9 -32.3,-178.1 -86.2,-573.6 -36.9,-594.8 62.5,-26.8 352,-66 352,-66 l 27.5,71.5 -264.9,93.8 80.5,467.5 c 7.63,43.52 -21.47,84.98 -64.99,92.61 -0.17,0.03 -0.34,0.06 -0.51,0.09 l -0.8,0.2" /><path
         id="path120"
         style="fill:#f254b2;fill-opacity:1;fill-rule:nonzero;stroke:none"
         d="m 6308.2,6128 v 0 c -43.24,7.2 -84.22,-21.74 -91.9,-64.9 C 6184,5885 6009.1,5649 6058.4,5627.8 c 62.6,-26.8 253,5.5 253,5.5 l 63.1,401.8 c 7.63,43.52 -21.47,84.98 -64.99,92.61 -0.17,0.03 -0.34,0.06 -0.51,0.09 l -0.8,0.2" /><path
         id="path122"
         style="fill:#fbceba;fill-opacity:1;fill-rule:nonzero;stroke:none"
         d="m 7303.1,5584.4 c 1.87,9.73 10.11,16.95 20,17.5 20,0.9 50,-1.4 50,-23.6 0,-33 -5.5,-88 -49.5,-82.5 -33.6,4.2 -26.1,60.4 -20.5,88.6" /><path
         id="path124"
         style="fill:#fbceba;fill-opacity:1;fill-rule:nonzero;stroke:none"
         d="m 6613.9,5963.3 c -58,4.8 -175.6,150 -203.1,184.9 20,1.7 32.6,2 32.6,2 l 188.1,3.9 c 48.5,-95.4 45.6,-196.1 -17.6,-190.8" /><path
         id="path126"
         style="fill:#fbceba;fill-opacity:1;fill-rule:nonzero;stroke:none"
         d="m 6062.8,3906.7 c 0,0 74.7,61.6 75.1,-25.5 l -94.3,-201.2 -126.9,-14.8 146.1,241.5" /><path
         id="path128"
         style="fill:#373d7d;fill-opacity:1;fill-rule:nonzero;stroke:none"
         d="M 5992.5,3821.4 5745,3430.9 5343.5,3178 l 90.8,-162.3 415.7,272.3 246.9,462 -104.4,71.4" /><g
         id="g130"><g
           clip-path="url(#clipPath136)"
           id="g132"><path
             id="path138"
             style="fill:#8284ca;fill-opacity:1;fill-rule:nonzero;stroke:none"
             d="M 6610.7,3226.5 5576.9,3973.9 5556,3945 6590,3197.6 Z m -433.1,-520.8 -1034,747.4 -21,-28.9 1034,-747.4 z m 100,138.2 -1034,747.4 -20.9,-29 1034,-747.4 z m 100,138.2 -1034,747.4 -20.9,-29 1034,-747.4 z m 78.9,109.2 -1034,747.4 21,28.9 1034,-747.6 -21,-28.7" /></g></g><path
         id="path140"
         style="fill:#f685c8;fill-opacity:1;fill-rule:nonzero;stroke:none"
         d="M 6580.9,3414.4 5954,3595.9 v 865.8 L 6580.9,4280 v -865.6" /><path
         id="path142"
         style="fill:#31376e;fill-opacity:1;fill-rule:nonzero;stroke:none"
         d="m 5616.1,3701.4 c 61,-6.8 99.4,-63.8 104.6,-71.6 40.6,-62.1 20,-135.8 0,-185.7 -26.1,-66.6 32.2,-92.1 47.2,-153.9 14.2,-58.3 -33,-134.5 -96,-157.5 -86.5,-31.6 -180.9,45.4 -223.7,106.5 -91.6,130.8 -18.2,292.5 -8.2,314.3 10,21.8 75.4,159.2 176.1,147.9" /><path
         id="path144"
         style="fill:#fbceba;fill-opacity:1;fill-rule:nonzero;stroke:none"
         d="m 5664.1,3642.2 c 0,0 88.1,-247.7 -38.8,-230 -74.5,10 -111.3,78.6 -111.3,78.6 0,0 -34.8,-6.6 -43.1,36 -5.4,28.4 32.3,54.5 45.6,3.1 0,0 15,0 27.9,33.6 8.1,21.1 10.9,48.4 40,41.9 29.1,-6.5 76.6,20.8 79.7,36.8" /><path
         id="path146"
         style="fill:#fbceba;fill-opacity:1;fill-rule:nonzero;stroke:none"
         d="m 5646.6,3423.3 c 0,0 -68.1,-97.8 -55,-154.3 13.1,-56.5 -211.6,-79 -162.6,24.7 49,103.7 84.6,127.5 127.6,225.6 43,98.1 90,-96 90,-96" /><path
         id="path148"
         style="fill:#fbceba;fill-opacity:1;fill-rule:nonzero;stroke:none"
         d="m 6487.4,3804.9 c 0,0 88,40 66,-44 L 6410,3590 l -126.5,18.4 203.9,196.5" /><path
         id="path150"
         style="fill:#f254b2;fill-opacity:1;fill-rule:nonzero;stroke:none"
         d="m 4638.2,619.102 c -11.1,-35.102 -23.7,-114.704 56.4,-180 106.3,-86.301 69.2,-175.301 69.2,-175.301 l -358.1,185.5 c 0,0 42.9,197.101 110,237.5 0,0 0.7,2 1.9,5.801 24,72.398 269.1,797.198 516.1,927.898 0,0 -48,594.9 225.2,886.4 l 421.1,-73.5 c 0,0 -311.3,-785 -403,-935.2 -91.7,-150.2 -609.2,-746.001 -632,-860.899 -2.76,-5.871 -5.04,-11.961 -6.8,-18.199" /><path
         id="path152"
         style="fill:#f685c8;fill-opacity:1;fill-rule:nonzero;stroke:none"
         d="M 6140.9,135 H 5730 c 0,0 -66,190.602 -29.3,260 0,0 -0.9,3.801 -2.5,11 -22.4,97.801 -181.5,820 -41.4,1055.9 0,0 -187,161.3 -359.3,1022.9 l 476.6,1.8 c 0,0 154.2,-826.6 154.2,-1002.4 0,-175.8 -130,-960.001 -90,-1070.001 0,0 0,-3.097 1.4,-8.297 5.8,-31.3 34.6,-141.902 150.8,-157.601 C 6126.3,230 6140.9,135 6140.9,135" /><path
         id="path154"
         style="fill:#373d7d;fill-opacity:1;fill-rule:nonzero;stroke:none"
         d="m 6467.2,3652.7 c 0,0 -328.1,-395.9 -348.3,-408.7 -20.2,-12.8 -338.9,-161.3 -338.9,-161.3 v -1 c -3.7,-20 -61.2,-341.4 24.1,-721.3 0,0 -322.7,105.4 -641.6,18.4 0,0 164.9,201.6 124.6,340.9 -40.3,139.3 -293.3,447.3 150,553.6 l 291.8,40 330,95.5 335.4,326.2 72.9,-82.3" /><g
         id="g156"><g
           clip-path="url(#clipPath162)"
           id="g158"><path
             id="path164"
             style="fill:#8284ca;fill-opacity:1;fill-rule:nonzero;stroke:none"
             d="M 5676.7,3224.7 H 4873.4 V 3189 h 811.1 c -0.9,2.2 -1.9,4.5 -2.8,6.8 -3.49,9.23 -5.19,19.04 -5,28.9" /><path
             id="path166"
             style="fill:#8284ca;fill-opacity:1;fill-rule:nonzero;stroke:none"
             d="m 4873.4,3054.2 h 1275.8 v -35.7 H 4873.4 v 35.7" /><path
             id="path168"
             style="fill:#8284ca;fill-opacity:1;fill-rule:nonzero;stroke:none"
             d="M 4873.4,2883.7 H 6149.2 V 2848 H 4873.4 v 35.7" /><path
             id="path170"
             style="fill:#8284ca;fill-opacity:1;fill-rule:nonzero;stroke:none"
             d="m 4873.4,2713.2 h 1275.8 v -35.7 H 4873.4 v 35.7" /><path
             id="path172"
             style="fill:#8284ca;fill-opacity:1;fill-rule:nonzero;stroke:none"
             d="m 4873.4,2542.8 h 1275.8 v -35.7 H 4873.4 v 35.7" /></g></g><path
         id="path174"
         style="fill:#f254b2;fill-opacity:1;fill-rule:nonzero;stroke:none"
         d="m 5622.2,3299 c 0,0 -205.3,-350 -238.3,-511.5 -33,-161.5 -177.9,-400 -177.9,-400 0,0 29.4,-70 71.5,7.3 0,0 134.1,230.8 161.3,385 15.1,85.3 105.2,333.8 240.9,526.3 0.3,0.4 -19,29.5 -57.5,-7.1" /><path
         id="path176"
         style="fill:#f685c8;fill-opacity:1;fill-rule:nonzero;stroke:none"
         d="m 5394.9,3267.8 c 0,0 51.3,-350 170,-610 75.6,-165 141.2,-276.8 141.2,-276.8 0,0 -20,-42.2 -60,11 -40,53.2 -110,207.1 -188.8,420 -78.8,212.9 -102.7,447.2 -102.7,447.2 0,0 5.4,63.6 40.3,8.6" /><path
         id="path178"
         style="fill:#3b3063;fill-opacity:1;fill-rule:nonzero;stroke:none"
         d="m 5662.7,3692.6 c -33,51.5 -201.2,42.4 -290,-47.1 -64.9,-65.5 -36.4,-92.7 -106.3,-190 -74.4,-103.6 -178,-92.6 -222.7,-173.2 -53.6,-96.9 -50.5,-242.5 66,-330 133.4,-100 398.3,-88.5 429.4,-8.4 27,70 -90,134.3 -63.4,249 16.4,70 70,90 68.8,152.8 -2,70 -21.6,71.7 -14,113.9 9.2,51.2 63.1,51.9 117.3,142 4.2,7.1 35,59.6 14.9,91" /><path
         id="path180"
         style="fill:#31376e;fill-opacity:1;fill-rule:nonzero;stroke:none"
         d="M 6140.9,135 H 5730 c 0,0 -66,190.602 -29.3,260 l 138.8,11 c 5.8,-31.301 34.6,-141.898 150.9,-157.699 C 6126.3,230 6140.9,135 6140.9,135" /><path
         id="path182"
         style="fill:#31376e;fill-opacity:1;fill-rule:nonzero;stroke:none"
         d="m 4763.7,264 -358.1,185.5 c 0,0 43,197.102 110.5,237.5 l 122,-67.898 c -11,-35 -23.7,-114.704 56.5,-180 C 4800.9,353 4763.7,264 4763.7,264" /><g
         id="g184"><g
           clip-path="url(#clipPath190)"
           id="g186"><path
             id="path192"
             style="fill:#8284ca;fill-opacity:1;fill-rule:nonzero;stroke:none"
             d="m 6770.8,3042.5 -705.5,1063.5 -30,-20 705.5,-1063 z m -588.5,-335.5 -705.4,1063 -30,-20 705.5,-1063.1 z m 142.1,94.3 -705.5,1063 -30,-20 705.5,-1063 z m 142,94.3 -705.5,1063 -30,-20 705.5,-1063 z m 112.3,74.4 -705.5,1063.6 30,20 705.3,-1063.6 -29.8,-20" /></g></g><path
         id="path194"
         style="fill:#614b9b;fill-opacity:1;fill-rule:nonzero;stroke:none"
         d="m 5424.4,4209.2 h 131.3 V 4108 h -131.3 v 101.2" /><path
         id="path196"
         style="fill:#9471bf;fill-opacity:1;fill-rule:nonzero;stroke:none"
         d="m 5628.1,4388.6 c 0,85.1 -70.6,152.9 -154.1,143.1 -61.94,-8.64 -110.8,-57.04 -120,-118.9 -7.63,-45.96 6.82,-92.82 39,-126.5 19.9,-19.96 31.21,-46.92 31.5,-75.1 v -2 h 131.3 v 0.8 c 0.13,28.18 11.26,55.19 31,75.3 26.84,27.65 41.68,64.77 41.3,103.3" /><path
         id="path198"
         style="fill:#ffffff;fill-opacity:1;fill-rule:nonzero;stroke:none"
         d="m 5443.8,4402.1 c 7.3,0 10.7,-6.2 13.8,-11.6 3.1,-5.4 5.4,-9 9.4,-9 4,0 6.1,3.4 9.3,9 3.2,5.6 6.5,11.6 13.8,11.6 7.3,0 10.8,-6.2 13.9,-11.6 3.1,-5.4 5.3,-9 9.3,-9 4,0 6.2,3.4 9.3,9 3.1,5.6 6.6,11.6 13.8,11.6 7.2,0 10.8,-6.2 13.9,-11.6 3.1,-5.4 5.3,-9 9.3,-9 1.38,0 2.5,-1.12 2.5,-2.5 0,-0.03 0,-0.07 0,-0.1 0,-1.4 -1.1,-2.54 -2.5,-2.6 -7.3,0 -10.8,6.2 -13.8,11.6 -3,5.4 -5.4,9 -9.4,9 -4,0 -6.1,-3.4 -9.3,-9 -3.2,-5.6 -6.5,-11.6 -13.8,-11.6 -7.3,0 -10.8,6.2 -13.8,11.6 -3,5.4 -5.4,9 -9.4,9 -4,0 -6.2,-3.4 -9.3,-9 -3.1,-5.6 -6.5,-11.6 -13.8,-11.6 -7.3,0 -10.8,6.2 -13.9,11.6 -3.1,5.4 -5.3,9 -9.3,9 -4,0 -6.3,-3.4 -9.4,-9 -3.1,-5.6 -6.5,-11.6 -13.9,-11.6 -1.44,0.01 -2.59,1.18 -2.58,2.62 0.01,1.42 1.16,2.57 2.58,2.58 4.1,0 6.3,3.4 9.4,9 3.1,5.6 6.6,11.6 13.9,11.6" /><path
         id="path200"
         style="fill:#ffffff;fill-opacity:1;fill-rule:nonzero;stroke:none"
         d="m 5494.9,4297.2 h -10 c -7.84,0.76 -14.86,-4.88 -15.8,-12.7 v -75.3 h 41.3 v 75.3 c -0.89,7.72 -7.75,13.34 -15.5,12.7" /><path
         id="path202"
         style="fill:#ffffff;fill-opacity:1;fill-rule:nonzero;stroke:none"
         d="m 5477.3,4284.6 c -1.16,-0.05 -2.26,0.52 -2.9,1.5 l -59.2,91 c -1.14,1.42 -0.9,3.5 0.52,4.64 0.03,0.02 0.05,0.04 0.08,0.06 1.48,1.16 3.62,0.91 4.78,-0.57 0,-0.01 0.01,-0.02 0.02,-0.03 v 0 L 5480,4290 c 1.02,-1.57 0.57,-3.68 -1,-4.7 -0.58,-0.32 -1.24,-0.49 -1.9,-0.5 l 0.2,-0.2" /><path
         id="path204"
         style="fill:#ffffff;fill-opacity:1;fill-rule:nonzero;stroke:none"
         d="m 5502.9,4284.6 c -1.88,0 -3.4,1.52 -3.4,3.4 v 0 c -0.15,0.59 -0.15,1.21 0,1.8 l 59.3,91 c 0.92,1.62 2.97,2.2 4.6,1.3 1.61,-0.85 2.23,-2.84 1.38,-4.46 -0.03,-0.04 -0.05,-0.09 -0.08,-0.14 v 0 l -59.3,-91 c -0.44,-1.03 -1.39,-1.75 -2.5,-1.9" /><path
         id="path206"
         style="fill:#9471bf;fill-opacity:1;fill-rule:nonzero;stroke:none"
         d="m 5636,4623.8 c 3.29,5.71 1.32,13.01 -4.4,16.3 -5.71,3.29 -13.01,1.32 -16.3,-4.4 L 5583,4580 c -3.19,-5.64 -1.28,-12.8 4.3,-16.1 v 0 c 5.6,-3.23 12.75,-1.32 15.98,4.28 0.01,0 0.02,0.01 0.02,0.02 l 32.7,55.6" /><path
         id="path208"
         style="fill:#9471bf;fill-opacity:1;fill-rule:nonzero;stroke:none"
         d="m 5730.9,4520 c 5.69,3.31 7.61,10.61 4.3,16.3 -3.31,5.69 -10.61,7.61 -16.3,4.3 v 0 l -56,-32.3 c -5.56,-3.26 -7.48,-10.39 -4.3,-16 v 0 c 3.13,-5.65 10.26,-7.69 15.91,-4.55 0.03,0.02 0.06,0.03 0.09,0.05 v 0 l 56.3,32.2" /><path
         id="path210"
         style="fill:#9471bf;fill-opacity:1;fill-rule:nonzero;stroke:none"
         d="m 5761.2,4406.8 h -65 c -6.46,0 -11.7,-5.24 -11.7,-11.7 v 0 0 c -0.06,-6.46 5.14,-11.74 11.6,-11.8 0.03,0 0.07,0 0.1,0 h 65 c 6.6,-0.6 12.44,4.26 13.04,10.86 0.61,6.59 -4.25,12.43 -10.85,13.04 -0.73,0.07 -1.46,0.07 -2.19,0 v -0.4" /><path
         id="path212"
         style="fill:#9471bf;fill-opacity:1;fill-rule:nonzero;stroke:none"
         d="m 5718.9,4249 c 5.97,-2.86 13.14,-0.34 16.01,5.63 2.56,5.32 0.85,11.72 -4.01,15.07 l -56.1,32.3 c -5.59,3.23 -12.75,1.32 -15.99,-4.27 0,-0.01 -0.01,-0.02 -0.01,-0.03 v 0 0 c -3.23,-5.59 -1.32,-12.75 4.27,-15.98 0.01,-0.01 0.02,-0.01 0.03,-0.02 l 55.8,-32.7" /><path
         id="path214"
         style="fill:#9471bf;fill-opacity:1;fill-rule:nonzero;stroke:none"
         d="m 5249.3,4270 c -5.71,-3.29 -7.69,-10.58 -4.4,-16.3 3.28,-5.72 10.58,-7.69 16.3,-4.4 l 56,32.4 c 5.6,3.22 7.53,10.37 4.31,15.97 0,0.01 0,0.02 -0.01,0.03 v 0 c -3.13,5.65 -10.26,7.69 -15.91,4.55 -0.03,-0.02 -0.06,-0.03 -0.09,-0.05 v 0 l -56.2,-32.2" /><path
         id="path216"
         style="fill:#9471bf;fill-opacity:1;fill-rule:nonzero;stroke:none"
         d="m 5295.7,4395.1 c 0,6.46 -5.24,11.7 -11.7,11.7 h -65.1 c -6.57,0 -11.9,-5.33 -11.9,-11.9 0,-6.57 5.33,-11.9 11.9,-11.9 h 65 c 6.52,0 11.8,5.28 11.8,11.8 v 0 0.3" /><path
         id="path218"
         style="fill:#9471bf;fill-opacity:1;fill-rule:nonzero;stroke:none"
         d="m 5261.2,4540.8 c -5.78,3.12 -13,0.97 -16.13,-4.82 -2.99,-5.55 -1.14,-12.47 4.23,-15.78 l 56,-32.3 c 5.57,-3.28 12.74,-1.41 16.01,4.15 0.03,0.05 0.06,0.1 0.09,0.15 v 0 0 c 3.18,5.61 1.27,12.74 -4.3,16 l -55.9,32.6" /><path
         id="path220"
         style="fill:#9471bf;fill-opacity:1;fill-rule:nonzero;stroke:none"
         d="m 5364.8,4635.7 c -3.45,5.59 -10.78,7.33 -16.38,3.88 -5.36,-3.31 -7.22,-10.23 -4.22,-15.78 l 32.3,-56 c 3.22,-5.6 10.37,-7.53 15.97,-4.32 0.01,0.01 0.02,0.01 0.03,0.02 v 0 c 5.65,3.13 7.69,10.26 4.55,15.91 -0.02,0.03 -0.03,0.06 -0.05,0.09 v 0 l -32.2,56.2" /><path
         id="path222"
         style="fill:#9471bf;fill-opacity:1;fill-rule:nonzero;stroke:none"
         d="m 5490,4589.3 c 6.51,0 11.8,5.28 11.8,11.8 v 0 65 c -0.6,6.6 -6.44,11.46 -13.04,10.86 -5.77,-0.53 -10.33,-5.1 -10.86,-10.86 v 0 -65 c 0,-6.52 5.28,-11.8 11.8,-11.8 v 0 h 0.3" /><path
         id="path224"
         style="fill:#f24eaf;fill-opacity:1;fill-rule:nonzero;stroke:none"
         d="m 7932.6,6821.1 -36.1,2 -14.7,-34.8 -26.9,-9.4 -33.2,18.1 -27,-24 14.2,-35.1 -12.4,-25.6 -36.5,-10.7 -2,-36.1 34.9,-14.7 9.3,-26.9 -18.1,-33.2 24,-27 35.1,14.2 25.7,-12.4 10.6,-36.3 36.1,-2 14.7,34.9 26.9,9.3 33.2,-18.1 27,24 -14.2,35.1 12.4,25.7 36.3,10.6 2,36.1 -34.8,14.7 -9.4,26.9 18.3,33.6 -24,27 -35.1,-14.2 -25.6,12.4 -10.7,35.9" /><path
         id="path226"
         style="fill:#b1d0ef;fill-opacity:1;fill-rule:nonzero;stroke:none"
         d="m 7779.1,6728.2 -13.7,39.4 h -43.7 l -21.7,24.9 4.7,43.3 -37.6,18.2 -31.1,-30.6 -32.8,1.8 -27.3,34.1 -40,-13.8 v -43.6 l -24.4,-21.9 -43.4,4.7 -18.1,-37.5 30.6,-31.1 -1.9,-32.8 -34,-27.4 13.8,-39.4 h 43.6 l 21.9,-24.5 -4.7,-43.4 37.6,-18.2 31,30.7 32.8,-1.9 27.4,-34 39.4,13.7 v 43.7 l 24.5,21.9 43.4,-4.8 18.2,37.6 -30.7,31.1 1.9,32.8 34.3,27" /><path
         id="path228"
         style="fill:#ffffff;fill-opacity:1;fill-rule:nonzero;stroke:none"
         d="m 7521.9,6697.2 c -2.73,-49.63 35.29,-92.08 84.92,-94.8 49.63,-2.73 92.08,35.29 94.81,84.92 2.72,49.47 -35.07,91.84 -84.53,94.78 v 0 c -49.62,2.95 -92.23,-34.89 -95.17,-84.5 -0.01,-0.14 -0.02,-0.27 -0.03,-0.4" /><path
         id="path230"
         style="fill:#ffffff;fill-opacity:1;fill-rule:nonzero;stroke:none"
         d="m 7823.3,6680 c -2.57,-45.71 32.4,-84.86 78.11,-87.43 45.71,-2.57 84.86,32.4 87.43,78.11 2.57,45.65 -32.3,84.76 -77.94,87.42 -45.75,2.62 -84.97,-32.35 -87.6,-78.1" /><path
         id="path232"
         style="fill:#8d77bb;fill-opacity:1;fill-rule:nonzero;stroke:none"
         d="m 7544,6696 c -2.2,-37.55 26.45,-69.77 63.99,-71.97 37.55,-2.2 69.77,26.45 71.98,64 2.2,37.54 -26.45,69.77 -64,71.97 -0.02,0 -0.05,0 -0.07,0 v 0 c -37.49,2.21 -69.68,-26.38 -71.89,-63.87 0,-0.04 0,-0.09 -0.01,-0.13" /><path
         id="path234"
         style="fill:#8d77bb;fill-opacity:1;fill-rule:nonzero;stroke:none"
         d="m 7844.4,6678.7 c -1.99,-34.13 24.07,-63.41 58.19,-65.4 34.13,-1.98 63.41,24.07 65.4,58.2 1.99,34.13 -24.06,63.41 -58.19,65.39 -0.04,0.01 -0.07,0.01 -0.1,0.01 v 0 c -34.07,1.99 -63.31,-24.02 -65.29,-58.1 0,-0.03 -0.01,-0.07 -0.01,-0.1" /><path
         id="path236"
         style="fill:#f685c8;fill-opacity:1;fill-rule:nonzero;stroke:none"
         d="m 8765.7,5909.7 c -23.1,0.6 -46.5,1 -70,1.1 v 22.2 c 23.4,0 47.1,-0.5 70,-1.1 z m -208.6,-1.4 -1.5,22.1 c 23.3,1 46.9,1.7 70,2.1 l 0.7,-22.2 c -23.1,0 -46.5,-1 -69.5,-2 z m 347.3,-5.5 c -22.9,1.6 -46.3,3.1 -69.3,4.2 l 1.9,22.1 c 23.3,-1.1 47,-2.6 70,-4.3 z m -485.8,-3.3 -3.4,22 c 23.2,2.1 46.8,3.8 70,5.3 l 2.4,-22.1 c -23,-1.5 -46.3,-3.2 -69.2,-5.2 z m 623.7,-10 c -22.8,2.7 -46,5.2 -68.8,7.4 l 3.6,22 c 23.2,-2.2 46.6,-4.8 70,-7.5 z m -761.4,-5.2 -5,21.8 c 23,3.1 46.4,6 69.5,8.5 l 4.2,-21.9 c -22.8,-2.7 -45.9,-5.3 -68.7,-8.4 z m 898,-14.4 c -22.5,3.8 -45.4,7.3 -68.1,10.6 l 5.4,21.8 c 23,-3.3 46.2,-6.9 69,-10.8 z m -1034.1,-7 -6.8,21.5 c 22.7,4.1 45.9,8.1 68.7,11.7 l 6,-21.7 c -22.6,-3.6 -45.4,-7.5 -67.9,-11.6 z M 9313.7,5844 c -22.2,4.8 -44.8,9.4 -67.2,13.7 l 7.2,21.5 c 22.7,-4.4 45.5,-9 68,-13.9 z m -1303,-8.9 -8.5,21.2 c 22.3,5.2 45.1,10 67.6,14.8 l 7.7,-21.3 c -22.2,-4.7 -44.7,-10 -66.8,-14.7 z m 1435.6,-23.3 c -21.8,5.8 -44,11.6 -66.1,16.9 l 8.9,21.1 c 22.3,-5.5 44.8,-11.2 66.9,-17.1 z m -1567.3,-10.7 -10,20.8 c 21.9,6.2 44.2,12.2 66.3,17.9 l 9.4,-20.9 c -21.8,-5.7 -43.8,-11.6 -65.5,-17.8 z m 1697.4,-28.2 c -21.3,6.9 -43,13.6 -64.6,20 l 10.6,20.6 c 21.8,-6.4 43.8,-13.2 65.4,-20 z m -1825.7,-12.2 -11.9,20 c 21.3,7.2 43,14.2 64.5,20.9 l 11.1,-20 c -21.4,-6.4 -42.8,-13.3 -63.8,-20.4 z M 9703,5728.6 c -20.7,7.8 -41.9,15.5 -62.9,22.9 l 12.3,20 c 21.2,-7.5 42.6,-15.3 63.6,-23.2 z m -2077.2,-13.7 -13.5,20 c 20.6,8.2 41.7,16.2 62.8,23.9 l 12.7,-20 c -20.8,-7.6 -41.7,-15.5 -62,-23.6 z m 2200,-36.4 c -20,8.8 -40,17.4 -60.9,25.7 l 13.9,19.5 c 20,-8.4 41.3,-17.1 61.6,-26 z m 118.41,-55.7 c -19.31,10 -39.01,19.3 -58.61,28.5 l 15.3,18.8 c 20,-9.3 40,-19 59.4,-28.8 z m 113.69,-61 c -18.4,10.5 -37.3,21 -56.2,31.1 l 16.8,18.1 c 19.1,-10 38.3,-20.8 57,-31.5 z m 108.6,-66.2 c -17.7,11.4 -35.7,22.8 -53.6,33.7 l 18.2,17.3 c 18.2,-11.1 36.4,-22.6 54.3,-34.1 z m 103,-71 c -16.6,12.1 -33.7,24.3 -50.8,36.1 l 20,16.4 c 17.3,-12 34.6,-24.3 51.4,-36.6 z m 97.1,-75.6 c -15.6,12.8 -31.6,25.7 -47.8,38.3 l 20.9,15.5 c 16.3,-12.7 32.6,-25.8 48.3,-38.8 z m 90.8,-80 c -14.6,13.7 -30,27.3 -44.6,40.5 l 22,14.5 c 15.3,-13.4 30,-27.2 45.2,-41 z m 84.1,-83.9 c -13.4,14.3 -27.3,28.6 -41.2,42.5 l 23.2,13.4 c 14.1,-14.1 28.1,-28.5 41.8,-43 z m 77.2,-87.7 c -12.2,14.9 -24.8,30 -37.7,44.3 l 24.3,12.3 c 13,-14.7 25.8,-30 38.2,-44.8 z m 70,-91 c -11,15.3 -22.5,30.8 -34.1,45.9 l 25.2,11.2 c 11.8,-15.3 23.4,-31 34.5,-46.6 z m 62.4,-94.2 c -10,15.8 -20,31.8 -30,47.5 l 26.1,10 c 10,-15.9 20.8,-32 30.6,-48 z m 54.5,-96.8 c -8.4,16.2 -17.2,32.6 -26.3,48.7 l 26.8,8.7 c 9.2,-16.3 18.2,-32.9 26.6,-49.3 z m 46.6,-99.5 c -7,16.6 -14.5,33.5 -22.3,50 l 27.5,7.5 c 7.9,-16.8 15.5,-33.9 22.6,-50.7 z m 38.5,-101.5 c -5.8,17.1 -11.9,34.2 -18.2,51 l 28,6.1 c 6.4,-17 12.6,-34.3 18.4,-51.6 z m 30,-103.1 c -4.3,17.3 -9,34.7 -14,51.7 l 28.5,4.8 c 5,-17.3 10,-34.9 14.1,-52.4 z m 21.5,-104.4 c -2.9,17.5 -6.1,35.1 -10,52.3 l 28.8,3.5 c 3.6,-17.5 6.9,-35.4 10,-53 z m 13,-105.1 c -1.5,17.5 -3.3,35.2 -5.5,52.6 l 29.1,2.1 c 2.1,-17.7 4,-35.6 5.5,-53.3 z m 4.4,-105.6 c 0,17.6 0,35.4 -1.1,52.9 l 29.1,0.6 c 0.8,-17.7 1.2,-35.6 1.2,-53.4 z m 28.1,-56.3 -29.1,0.6 c 0.7,17.6 1.1,35.4 1.1,52.9 h 29.1 c 0,-17.8 0,-35.8 -1.1,-53.6 z m -8.6,-106.8 -29,2 c 2.1,17.5 3.9,35.2 5.3,52.7 l 29.1,-1.4 c -1.4,-17.7 -3.2,-35.7 -5.3,-53.3 z m -17.2,-106.2 -28.8,3.4 c 3.5,17.2 6.7,34.8 10,52.3 l 28.9,-2.7 c -2.9,-17.7 -6.2,-35.6 -10,-53 z m -25.9,-105.2 -28.5,4.8 c 5,17.1 10,34.5 13.9,51.8 l 28.6,-4.1 c -4.3,-17.5 -9,-35.1 -14,-52.5 z m -34.4,-103.7 -28.1,6.1 c 6.4,16.9 12.5,34.1 18.1,51 l 28.3,-5.4 c -5.7,-17.2 -11.9,-34.6 -18.3,-51.7 z m -43,-102.1 -27.5,7.4 c 7.8,16.6 15.2,33.4 22.3,50 l 27.8,-6.7 c -7.2,-17 -14.8,-34.1 -22.6,-50.9 z M 6666.1,3347.6 c -11.4,15.5 -22.7,31.3 -33.4,47 l 25.8,10 c 10.7,-15.4 21.8,-31 33.1,-46.3 z m 72.6,-91.4 c -12.7,14.9 -25.2,30 -37.2,45.3 l 25,11.4 c 11.8,-15 24.2,-30 36.7,-44.7 z m 80,-88 c -13.8,14.3 -27.5,28.9 -40.8,43.5 l 24,12.6 c 13.1,-14.4 26.7,-28.9 40,-42.9 z m 86.9,-84.1 c -15,13.6 -30,27.6 -44.3,41.5 l 23,13.7 c 14.2,-13.7 28.9,-27.6 43.7,-41 z m 93.5,-80 c -16,12.9 -32,26.2 -47.6,40 l 21.8,14.7 c 15.4,-13.1 31.2,-26.2 47,-39 z m 100,-75.4 c -17.1,12.1 -34.1,24.6 -50.7,37.2 l 20.6,15.7 c 16.3,-12.4 33.2,-24.8 50,-36.7 z m 105.7,-70.8 c -18.1,11.3 -36.1,23 -53.6,34.8 l 18.8,17.3 c 17.3,-11.6 35.1,-23.2 52.9,-34.4 z m 111.1,-65.9 c -18.8,10 -37.7,21.4 -56.2,32.3 l 17.9,17.5 c 18.2,-10.8 36.9,-21.5 55.5,-31.9 z m 116.3,-60 c -20,10 -39.5,19.5 -58.7,30 l 16.5,18 c 19,-10 38.5,-20 58,-29.3 z m 121,-55.1 c -20,8.7 -40.9,17.7 -61,26.9 l 15,19 c 20,-9.1 40,-18 60,-26.5 z m 2228.3,-12.6 -13.8,20 c 20,8.2 40.6,16.9 60,25.7 l 14.6,-19.2 c -20,-8.9 -40.8,-17.6 -61.3,-26 z m -2103,-36.7 c -21.1,7.7 -42.4,15.7 -63.1,23.9 l 13.4,20 c 20,-8.1 41.5,-16 62.3,-23.6 z m 1977.4,-11 -12.3,20 c 21,7.3 42,15 62.5,22.8 l 13.11,-20 c -20.81,-7.9 -42.11,-15.7 -63.31,-23.1 z m -1848.3,-32.5 c -21.7,6.7 -43.6,13.8 -65,21 l 11.8,20 c 21.2,-7.2 42.7,-14.1 64.2,-20.8 z m 1719,-9.3 -10.7,20.6 c 21.6,6.4 43.2,13.1 64.4,20 l 11.5,-20 c -21.5,-6.9 -43.5,-13.8 -65.2,-20 z M 7940,2546.7 c -22.2,5.7 -44.6,11.7 -66.6,17.9 l 10,20.8 c 21.6,-6.1 43.8,-12.1 65.7,-17.7 z m 1453,-7.8 -8.9,21.1 c 21.9,5.4 44.1,11.1 65.8,17 l 10,-20.9 c -22.1,-6 -44.5,-11.7 -66.7,-17.2 z m -1319.2,-23.3 c -22.5,4.7 -45.3,10 -67.6,14.8 l 8.4,21.2 c 22.1,-5.1 44.6,-10 66.8,-14.6 z m 1183.9,-6.3 -7.2,21.5 c 22.4,4.3 44.9,9 67.1,13.8 l 8,-21.3 c -22.4,-4.9 -45.3,-10 -67.9,-14 z m -1046.9,-18.4 c -22.9,3.6 -46,7.5 -68.7,11.6 l 6.7,21.5 c 22.5,-4.1 45.3,-7.9 67.9,-11.4 z m 910,-4.8 -5.5,21.7 c 22.7,3.3 45.6,6.9 68.1,10.7 l 6.3,-21.6 c -22.8,-3.9 -46,-7.5 -69,-10.8 z M 8350,2472.5 c -23.1,2.5 -46.5,5.4 -70,8.4 l 5,21.8 c 22.7,-3 45.8,-5.8 68.7,-8.2 z m 631.7,-3.3 -3.7,22 c 22.9,2.2 46,4.7 68.8,7.5 l 4.6,-21.9 c -23.1,-2.8 -46.5,-5.3 -70,-7.6 z m -491.7,-8.6 c -23.3,1.4 -46.9,3.2 -70,5.2 l 3.2,22 c 23,-2 46.2,-3.7 69.2,-5.1 z m 351.9,-2.3 -2,22.1 c 23.1,1.2 46.3,2.7 69.3,4.4 l 2.9,-22 c -23.3,-1.8 -46.9,-3.3 -70,-4.5 z m -211.1,-3.6 c -23.3,0 -47,1 -70,1.9 l 1.5,22.2 c 23,-0.9 46.4,-1.6 69.4,-2 z m 70,0 v 22.2 c 23.1,0 46.4,0 70,1.2 l 1,-22.2 c -24,-0.6 -47.6,-1.1 -71,-1.2" /><path
         id="path238"
         style="fill:#ffffff;fill-opacity:1;fill-rule:nonzero;stroke:none"
         d="M 10429,6045.8 H 9276.9 c 0,0 91.8,656.3 340,234.1 0,0 211.1,578.3 431.4,-32.2 -0.3,0 380.7,128.5 380.7,-201.9" /><path
         id="path240"
         style="fill:#ffffff;fill-opacity:1;fill-rule:nonzero;stroke:none"
         d="M 12722.2,4956.9 H 11570 c 0,0 91.8,656.4 340,234.1 0,0 211.1,578.3 431.4,-32.1 -0.2,-0.1 380.8,128.5 380.8,-202" /><path
         id="path242"
         style="fill:#d4e4f6;fill-opacity:1;fill-rule:nonzero;stroke:none"
         d="M 5556.4,5592.4 H 4404.3 c 0,0 91.8,656.3 340,234.1 0,0 211.1,578.3 431.4,-32.2 -0.3,0 380.7,128.5 380.7,-201.9" /><path
         id="path244"
         style="fill:#e8f0fa;fill-opacity:1;fill-rule:nonzero;stroke:none"
         d="M 7363.3,-2496.3 -2463.5,-6073 c 0,0 896.5,887 600,1508 -296.5,621 -858.9,1243.2 128.8,2149.3 987.7,906.1 1263.098,875 779.196,2031.501 C -1439.4,772.301 126.699,2637.6 1757.8,428.102 3388.9,-1781.4 3467.1,-340 4301,-513.398 5134.9,-686.801 4895.5,-1838.8 5877.8,-1803.4 c 982.3,35.39 1336.9,-284.5 1485.5,-692.9" /><path
         id="path246"
         style="fill:#b1d0ef;fill-opacity:1;fill-rule:nonzero;stroke:none"
         d="M 1284.3,2503.4 C 1326.8,2207.4 1209.1,1698.7 985,1510.8 760.898,1322.9 440,1054 408,666.102 378.504,303.199 30.6016,161.898 -150,171.602 h -2.898 c -10.641,0.687 -21.227,2.027 -31.7,4 0,0 -379.398,766.898 112.8988,1239.998 492.3012,473.1 428.2972,498.4 508.2972,845.6 80,347.2 222.601,694.7 534.101,753 310.001,57.9 193.501,340.5 600.001,295.6 h 1.9 l 6,-0.6 c 0,0 -336.9,-509.8 -294.3,-805.8" /><path
         id="path248"
         style="fill:#ffffff;fill-opacity:1;fill-rule:nonzero;stroke:none"
         d="m 1572.5,3310 c -46.67,-34.26 -92.7,-69.64 -138.1,-106.1 -64.5,-51.6 -126.2,-106.4 -190,-160 -63.8,-53.6 -126.4,-105.5 -184.4,-163.9 -29.31,-28.74 -56.7,-59.37 -82,-91.7 -25.066,-32.41 -46.93,-67.17 -65.301,-103.8 -37.39,-72.95 -61.304,-152.05 -70.597,-233.5 -10,-81.4 -6.7,-164.1 -12.704,-247 -4.207,-83.78 -24.793,-165.93 -60.597,-241.8 -18.281,-37.57 -39.867,-73.45 -64.504,-107.2 -12.399,-16.7 -23.895,-34 -37.5,-50 -13.598,-16 -25.996,-32.5 -40,-47.6 -56.684,-60.63 -117.492,-117.26 -181.996,-169.5 -62.699,-53.4 -125,-107.7 -174.399,-173 l -18.406,-24.5 c -6.394,-8.1 -11.394,-17.1 -16.996,-25.6 l -17.402,-24.8 -14.696,-26.9 c -4.8,-9.1 -10,-17.8 -14.504,-27.1 l -12.699,-27.9 C 171.5,1248.7 167.102,1239.4 163,1230 l -11.102,-28.6 c -14.398,-38.28 -25.503,-77.73 -33.195,-117.9 -7.699,-40 -11.504,-81.1 -15.504,-122.301 C 89.3555,795.84 52.3242,633.238 -6.80078,478.199 -46.25,372.34 -94.1406,269.809 -150,171.602 h -2.898 c 54.3785,99.109 100.6636,202.437 138.398,309 57.1602,154.828 92.3359,316.898 104.5,481.5 3.5,40.998 6.9961,82.498 14.602,123.598 7.574,40.88 18.679,81.04 33.199,120 l 11.297,29.1 c 4.101,10 8.5,19.1 12.8,28.6 l 12.801,28.4 c 4.5,9.5 10,18.4 14.598,27.7 l 14.902,27.4 16.903,26.4 c 5.695,8.7 10.796,17.8 17.199,26.1 l 18.801,25.1 c 50,66.9 113.398,122.2 176.097,175.9 63.805,52 123.946,108.33 180,168.6 14.199,14.8 26.801,31 40,46.8 13.203,15.8 24.703,32.6 37.102,49 24.195,33.11 45.379,68.32 63.301,105.2 35.265,73.91 55.652,154.03 60,235.8 6.296,81.7 2.996,164.9 13.597,247.6 5,41.47 13.598,82.42 25.703,122.4 12.387,39.89 28.422,78.55 47.899,115.5 19.121,37.06 41.722,72.22 67.5,105 25.918,32.5 53.949,63.27 83.899,92.1 60,57.8 123.7,110 187.5,162.5 63.8,52.5 126.8,105.9 192.3,156.4 45.33,35.13 91.53,69.37 138.6,102.7 h 1.9" /><path
         id="path250"
         style="fill:#f685c8;fill-opacity:1;fill-rule:nonzero;stroke:none"
         d="m 3595.2,3067.3 c -11.3,-5.7 -734.5,-367.7 -863.5,-839 -130,-475.1 -336.5,-766.4 -680,-956.1 C 1708.2,1082.5 1462.7,461.102 817.5,424 172.301,386.898 -184.5,175.699 -184.5,175.699 c 0,0 0,10 1.602,27.102 0,2 0,4 0.496,6.101 12.402,129.2 93.2028,601.098 630.504,824.598 625.998,260 1043.098,378.9 1223.598,856.7 180.5,477.8 388.4,743.8 707,838.3 318.6,94.5 322.7,212.4 567.9,283.5 212,61.5 542.1,58 627.9,56 h 8.4 l 12.3,-0.7" /><path
         id="path252"
         style="fill:#ffffff;fill-opacity:1;fill-rule:nonzero;stroke:none"
         d="m 3582.9,3067.7 c -380,-80 -739.2,-247.8 -1050,-477.1 -87.83,-67.79 -169.14,-143.62 -242.9,-226.5 -74.31,-82.33 -136.35,-174.95 -184.2,-275 -24.4,-50 -47.2,-100.6 -71.2,-151 -24,-50.4 -49.5,-100 -76.8,-149 -13.4,-24.5 -28.2,-48.3 -42.1,-72.5 -13.9,-24.2 -30,-47.3 -44.4,-71.1 -30.8,-46.5 -62.2,-92.8 -94.1,-138.4 -31.9,-45.6 -64.1,-91.3 -97.2,-136.2 -16.4,-22.6 -33.6,-44.6 -50,-66.9 -16.4,-22.3 -34.3,-44.1 -52.4,-65.4 -35.48,-43.33 -73.27,-84.72 -113.2,-124 -39.82,-39.55 -82.62,-75.98 -128,-109 l -17,-12.198 c -5.55,-4.281 -11.33,-8.242 -17.3,-11.902 l -35.4,-22.898 c -12,-7.2 -24.4,-13.903 -36.5,-20.903 -6.1,-3.5 -12.1,-7 -18.3,-10 l -18.8,-9.398 c -50.11,-25.422 -102.3,-46.488 -156,-63 C 983.172,839.289 927.75,828.801 871.699,824 815.898,818.902 759.898,818.902 704.398,817.699 648.988,817.309 593.707,812.398 539.098,803 484.535,792.73 431.211,776.742 380,755.301 277.559,712.242 183.441,651.59 101.898,576.102 20.4805,500.281 -51.2344,414.66 -111.602,321.199 c -25.066,-38.461 -48.699,-77.898 -70.898,-118.301 0,1.903 0,3.903 0.5,6.004 20.934,38.996 43.23,77.2 66.898,114.598 59.4223,94.59 130.2934,181.469 211.0004,258.699 81.9026,76.949 176.6716,138.93 279.9996,183.102 51.696,21.871 105.512,38.328 160.602,49.097 55.027,9.872 110.797,15.082 166.699,15.602 55.801,1.699 111.403,2.102 166.5,7.5 55,5.02 109.364,15.469 162.301,31.199 52.83,16.41 104.15,37.321 153.4,62.5 l 18.5,9.199 c 6.1,3.301 12,6.801 18,10 12,6.903 24.2,13.403 36,20.704 l 34.8,22.5 c 5.8,3.699 11.5,7.598 17,11.798 l 16.8,12.2 c 44.7,32.61 86.83,68.61 126,107.7 39.41,39.01 76.7,80.09 111.7,123.1 17.9,21.09 34.7,43.2 51.9,65 17.2,21.8 33.7,44.2 50,66.8 32.9,44.8 64.7,90 96.7,136 32,46 63.5,91.5 94,137.7 14.8,23.6 30,46.9 44.4,70.59 14.4,23.71 28.7,47.61 41.9,71.91 27.3,48.4 52.5,97.8 76.7,147.9 24.2,50.1 47,100.8 71.7,151 48.63,101.18 111.65,194.78 187.1,277.9 37.3,41.9 76.7,81.6 117.7,120 41,38.4 84.2,73.5 128.6,107.4 89.25,67.34 183.53,127.75 282,180.7 48.8,26.67 98.27,52.43 148.4,77.3 25.1,12 50,24.4 75.8,35.4 l 38.2,17 38.7,16 c 150.78,61.41 307,108.48 466.6,140.6 l 8.3,0.1" /><path
         id="path254"
         style="fill:#b1d0ef;fill-opacity:1;fill-rule:nonzero;stroke:none"
         d="m 2818.5,873.102 -13.5,-8.602 -5,-3.098 c -75.6,-48.504 -364.5,-240 -496.8,-420 C 2150.2,233.5 1887.7,9.30078 1496,85.5 1104.3,161.699 648.398,68.8008 596.004,-171 c -42.902,-194.801 -597.30088,-243.398 -750,68.5 l -1.707,3.6016 C -189.801,-27.1992 -202.898,63.5 -183.996,175.5 c 0,0 479.195,518.699 820,440 340.793,-78.699 478.096,-49.098 669.196,32.5 191.1,81.602 365.4,110 567.8,90 202.4,-20 387.9,193.59 613.2,162.199 225.3,-31.398 332.3,-27.097 332.3,-27.097" /><path
         id="path256"
         style="fill:#ffffff;fill-opacity:1;fill-rule:nonzero;stroke:none"
         d="m 2950,848.199 c -49.58,8.321 -99.73,12.731 -150,13.203 1.8,1.098 3.5,2.297 5,3.098 48.69,-1.602 97.17,-7.059 145,-16.301" /><path
         id="path258"
         style="fill:#ffffff;fill-opacity:1;fill-rule:nonzero;stroke:none"
         d="m 2805,864.5 -5,-3.098 c -23.8,0 -47.6,-0.933 -71.4,-2.8 -73.57,-5.911 -145.5,-24.911 -212.4,-56.102 -8.2,-4.199 -16.8,-7.602 -24.7,-12.301 l -24,-13.5 -22.9,-15.097 c -7.6,-5 -14.6,-11 -21.9,-16.5 -28.39,-23.301 -54.62,-49.11 -78.4,-77.102 -23.81,-28.668 -49.39,-55.828 -76.6,-81.301 -28.17,-25.078 -60.09,-45.59 -94.6,-60.797 -34.47,-15.101 -70.63,-26.004 -107.7,-32.5 -37.06,-5.871 -74.63,-7.839 -112.1,-5.902 -37.2,1.301 -73.9,4.199 -110.6,4.301 -36.82,0.148 -73.58,-2.5 -110,-7.899 l -27.1,-4.414 -26.8,-5.789 c -17.9,-3.801 -35.7,-9.097 -53.5,-13.5 -35.3,-10 -70.5,-21 -104.7,-34.5 -34.2,-13.5 -67.7,-28.199 -100.9,-44.398 -33.2,-16.199 -65.9,-33.403 -100,-49.403 -34.1,-15.996 -68,-30 -103.2,-43.097 C 1181.61,276.242 1146.05,265.59 1110,256.898 1037.69,238.512 963.313,229.469 888.703,230 c -74.902,0.902 -148.605,13.301 -221.601,21.301 -36.52,4.219 -73.243,6.39 -110,6.5 L 529.602,257 h -13.704 l -13.796,-1.301 -27.403,-2.398 C 465.602,252.5 456.598,250.602 447.5,249.398 374.727,238.402 303.742,217.789 236.402,188.102 169.336,157.891 105.648,120.691 46.4023,77.1016 -13.25,33.5 -69.332,-14.7813 -121.297,-67.3008 c -11.07,-11.1992 -22.004,-22.5703 -32.805,-34.0972 -0.597,1.097 -1.097,2.398 -1.699,3.4996 10,11.5 20.699,22.6992 31.301,33.8007 C -73.3047,-10.8086 -17.9961,38.3711 40.8984,83 c 59.4846,44.719 123.5396,83 191.0976,114.199 68.024,30.781 139.813,52.43 213.504,64.403 9.199,1.296 18.402,3.296 27.602,4.199 l 27.902,2.699 13.894,1.398 c 4.704,0 9.399,0 14.004,0.704 l 27.996,1 c 37.286,0.199 74.551,-1.801 111.606,-6 73.996,-7.801 146.797,-20 220,-20 73.402,-0.153 146.526,9.05 217.596,27.398 35.67,8.762 70.85,19.41 105.4,31.898 34.47,12.602 68.3,26.872 101.5,42.801 33.2,15.801 66.1,32.801 99.5,49.102 33.4,16.301 67.6,31.301 102.4,44.601 34.8,13.297 70,24.297 106.3,34.598 18,4.398 35.9,10 54.2,13.398 l 27.4,5.911 27.8,4.492 c 37.02,5.398 74.4,7.91 111.8,7.5 37.3,0 74.4,-3.199 111.2,-4.602 36.45,-2.019 73.01,-0.277 109.1,5.199 35.99,5.872 71.16,15.942 104.8,30 33.46,14.422 64.49,33.922 92,57.813 27.09,24.852 52.58,51.398 76.3,79.488 24.29,28.18 51.07,54.121 80,77.5 7.6,5.512 14.7,11.602 22.7,16.602 l 23.6,15.097 24.5,13.5 c 8.1,4.704 16.8,8.102 25.2,12.204 68.1,30.367 141.08,48.32 215.5,53 25.86,1.839 51.79,2.308 77.7,1.398" /></g></g></svg>