<svg width="110" height="40" viewBox="0 0 110 40" fill="none" xmlns="http://www.w3.org/2000/svg">
<path d="M43.5028 6.90909L46.6669 16.8551H46.7884L49.9588 6.90909H53.027L48.5142 20H44.9474L40.4283 6.90909H43.5028ZM55.1188 20H52.1529L56.6721 6.90909H60.2388L64.7516 20H61.7857L58.5066 9.90057H58.4043L55.1188 20ZM54.9334 14.8544H61.9391V17.0149H54.9334V14.8544ZM57.5094 5.64347L55.5598 2.73509H58.0719L59.4334 5.64347H57.5094ZM77.7418 13.4545C77.7418 14.8821 77.4712 16.0966 76.93 17.098C76.3931 18.0994 75.6602 18.8643 74.7312 19.3928C73.8065 19.9169 72.7667 20.179 71.6119 20.179C70.4485 20.179 69.4045 19.9148 68.4798 19.3864C67.555 18.858 66.8242 18.093 66.2873 17.0916C65.7504 16.0902 65.4819 14.8778 65.4819 13.4545C65.4819 12.027 65.7504 10.8125 66.2873 9.81108C66.8242 8.80966 67.555 8.04687 68.4798 7.52273C69.4045 6.99432 70.4485 6.73011 71.6119 6.73011C72.7667 6.73011 73.8065 6.99432 74.7312 7.52273C75.6602 8.04687 76.3931 8.80966 76.93 9.81108C77.4712 10.8125 77.7418 12.027 77.7418 13.4545ZM74.9357 13.4545C74.9357 12.5298 74.7972 11.75 74.5202 11.1151C74.2475 10.4801 73.8619 9.99858 73.3633 9.67045C72.8647 9.34233 72.2809 9.17827 71.6119 9.17827C70.9428 9.17827 70.359 9.34233 69.8604 9.67045C69.3619 9.99858 68.9741 10.4801 68.6971 11.1151C68.4244 11.75 68.288 12.5298 68.288 13.4545C68.288 14.3793 68.4244 15.1591 68.6971 15.794C68.9741 16.429 69.3619 16.9105 69.8604 17.2386C70.359 17.5668 70.9428 17.7308 71.6119 17.7308C72.2809 17.7308 72.8647 17.5668 73.3633 17.2386C73.8619 16.9105 74.2475 16.429 74.5202 15.794C74.7972 15.1591 74.9357 14.3793 74.9357 13.4545ZM95.5085 11.4922H92.7088C92.6577 11.13 92.5533 10.8082 92.3956 10.527C92.2379 10.2415 92.0355 9.99858 91.7884 9.7983C91.5412 9.59801 91.2557 9.4446 90.9318 9.33807C90.6122 9.23153 90.2649 9.17827 89.8899 9.17827C89.2124 9.17827 88.6222 9.34659 88.1193 9.68324C87.6165 10.0156 87.2266 10.5014 86.9496 11.1406C86.6726 11.7756 86.5341 12.5469 86.5341 13.4545C86.5341 14.3878 86.6726 15.1719 86.9496 15.8068C87.2308 16.4418 87.6229 16.9212 88.1257 17.245C88.6286 17.5689 89.2102 17.7308 89.8707 17.7308C90.2415 17.7308 90.5845 17.6818 90.8999 17.5838C91.2195 17.4858 91.5028 17.343 91.75 17.1555C91.9972 16.9638 92.2017 16.7315 92.3636 16.4588C92.5298 16.1861 92.6449 15.875 92.7088 15.5256L95.5085 15.5384C95.4361 16.1392 95.255 16.7188 94.9652 17.277C94.6797 17.831 94.294 18.3274 93.8082 18.7663C93.3267 19.201 92.7514 19.5462 92.0824 19.8018C91.4176 20.0533 90.6655 20.179 89.826 20.179C88.6584 20.179 87.6143 19.9148 86.6939 19.3864C85.7777 18.858 85.0533 18.093 84.5206 17.0916C83.9922 16.0902 83.728 14.8778 83.728 13.4545C83.728 12.027 83.9964 10.8125 84.5334 9.81108C85.0703 8.80966 85.799 8.04687 86.7195 7.52273C87.6399 6.99432 88.6754 6.73011 89.826 6.73011C90.5845 6.73011 91.2876 6.83665 91.9354 7.04972C92.5874 7.26278 93.1648 7.57386 93.6676 7.98295C94.1705 8.38778 94.5795 8.88423 94.8949 9.4723C95.2145 10.0604 95.419 10.7337 95.5085 11.4922ZM99.5036 20H96.5376L101.057 6.90909H104.624L109.136 20H106.17L102.891 9.90057H102.789L99.5036 20ZM99.3182 14.8544H106.324V17.0149H99.3182V14.8544Z" fill="#004C39"/>
<path d="M86.6321 32V24.7273H88.1697V27.728H91.2912V24.7273H92.8253V32H91.2912V28.9957H88.1697V32H86.6321ZM94.093 32V24.7273H96.9624C97.5116 24.7273 97.9804 24.8255 98.3686 25.022C98.7592 25.2161 99.0563 25.492 99.2599 25.8494C99.4659 26.2045 99.5689 26.6224 99.5689 27.103C99.5689 27.5859 99.4647 28.0014 99.2564 28.3494C99.0481 28.6951 98.7462 28.9602 98.3509 29.1449C97.9579 29.3295 97.482 29.4219 96.9233 29.4219H95.0021V28.1861H96.6747C96.9683 28.1861 97.2121 28.1458 97.4062 28.0653C97.6004 27.9848 97.7448 27.8641 97.8395 27.7031C97.9366 27.5421 97.9851 27.3421 97.9851 27.103C97.9851 26.8615 97.9366 26.6579 97.8395 26.4922C97.7448 26.3265 97.5992 26.201 97.4027 26.1158C97.2086 26.0282 96.9635 25.9844 96.6676 25.9844H95.6307V32H94.093ZM98.0206 28.6903L99.8281 32H98.1307L96.3622 28.6903H98.0206ZM100.656 24.7273H102.552L104.555 29.6136H104.64L106.643 24.7273H108.539V32H107.048V27.2663H106.987L105.105 31.9645H104.089L102.207 27.2486H102.147V32H100.656V24.7273Z" fill="#73C41D"/>
<path d="M35.224 11.487C35.9258 9.83707 35.8201 8.1191 34.8379 6.96159C33.6453 5.55814 31.505 5.41789 29.5056 6.4001C31.6341 7.82788 33.558 9.53928 35.224 11.487Z" fill="#FF0000"/>
<path d="M8.35423 27.3962C8.19035 27.8083 7.90622 28.1614 7.53884 28.4097C7.17146 28.658 6.73784 28.7899 6.29442 28.7883H4.33516C4.23638 28.791 4.13809 28.7738 4.04607 28.7378C3.95406 28.7018 3.87018 28.6477 3.7994 28.5788C3.72862 28.5098 3.67236 28.4274 3.63395 28.3364C3.59554 28.2453 3.57574 28.1475 3.57574 28.0487C3.57574 27.9499 3.59554 27.8521 3.63395 27.7611C3.67236 27.67 3.72862 27.5876 3.7994 27.5187C3.87018 27.4497 3.95406 27.3957 4.04607 27.3597C4.13809 27.3237 4.23638 27.3065 4.33516 27.3091H6.29442C6.44231 27.3096 6.58693 27.2656 6.70949 27.1829C6.83206 27.1001 6.9269 26.9824 6.98171 26.8451C7.01692 26.7536 7.06994 26.67 7.13771 26.5992C7.20547 26.5284 7.28663 26.4718 7.37647 26.4326C7.4663 26.3934 7.56303 26.3725 7.66102 26.371C7.75902 26.3695 7.85634 26.3875 7.94732 26.424C8.0383 26.4604 8.12113 26.5146 8.19101 26.5833C8.26089 26.652 8.31641 26.7339 8.35437 26.8243C8.39232 26.9147 8.41195 27.0117 8.4121 27.1097C8.41225 27.2077 8.39293 27.3047 8.35526 27.3952L8.35423 27.3962ZM13.2127 17.6963C13.5785 17.6964 13.9361 17.588 14.2403 17.3849C14.5445 17.1817 14.7817 16.8929 14.9217 16.555C15.0618 16.217 15.0985 15.8452 15.0272 15.4864C14.9559 15.1276 14.7798 14.798 14.5212 14.5393C14.2625 14.2806 13.933 14.1044 13.5742 14.033C13.2154 13.9616 12.8436 13.9982 12.5056 14.1382C12.1676 14.2781 11.8787 14.5152 11.6755 14.8193C11.4723 15.1235 11.3638 15.4811 11.3638 15.8469C11.3638 16.3373 11.5586 16.8076 11.9053 17.1544C12.252 17.5013 12.7223 17.6962 13.2127 17.6963ZM19.1297 13.9979C17.2947 13.9979 16.9595 19.2086 16.9162 22.1341H15.8979C15.7704 22.1341 15.6451 22.1011 15.5342 22.0383C15.4232 21.9755 15.3304 21.885 15.2648 21.7757L13.9005 19.5097C13.7034 19.1818 13.4247 18.9106 13.0917 18.7223C12.7587 18.534 12.3826 18.4351 12 18.4352H10.247C10.2236 18.4336 10.2002 18.4336 10.1769 18.4352H8.20987C7.7979 18.435 7.39405 18.5497 7.0436 18.7662C6.69316 18.9828 6.40999 19.2927 6.22585 19.6613L5.15547 21.8046C5.07268 21.9794 5.06166 22.1797 5.12477 22.3626C5.18787 22.5455 5.32009 22.6963 5.49308 22.7829C5.66608 22.8695 5.8661 22.8848 6.05029 22.8257C6.23448 22.7666 6.38819 22.6377 6.47849 22.4666L7.54887 20.3253C7.61021 20.2026 7.70455 20.0993 7.82131 20.0272C7.93807 19.9551 8.07262 19.9169 8.20987 19.917H9.11113L7.8144 23.0776C7.61607 23.5603 7.59436 24.0975 7.75309 24.5946C7.91181 25.0917 8.2408 25.5169 8.68215 25.7953L11.7329 27.7216V31.0111C11.7303 31.1099 11.7475 31.2082 11.7835 31.3002C11.8195 31.3922 11.8736 31.4761 11.9425 31.5468C12.0115 31.6176 12.0939 31.6739 12.1849 31.7123C12.2759 31.7507 12.3738 31.7705 12.4726 31.7705C12.5714 31.7705 12.6692 31.7507 12.7602 31.7123C12.8512 31.6739 12.9337 31.6176 13.0026 31.5468C13.0715 31.4761 13.1256 31.3922 13.1616 31.3002C13.1976 31.2082 13.2148 31.1099 13.2122 31.0111V27.3112C13.2121 27.1862 13.1804 27.0633 13.1201 26.9539C13.0598 26.8445 12.9728 26.752 12.8673 26.6852L11.3571 25.7319L13.206 21.2251L13.9969 22.5383C14.1942 22.8663 14.473 23.1376 14.8062 23.3259C15.1394 23.5142 15.5157 23.6131 15.8984 23.6128H17.6633C17.7592 23.6129 17.8541 23.6319 17.9425 23.6687C18.031 23.7056 18.1113 23.7595 18.1789 23.8275C18.2464 23.8955 18.2999 23.9762 18.3362 24.0649C18.3725 24.1536 18.3909 24.2486 18.3903 24.3444V24.3594C18.3858 24.5535 18.3062 24.7382 18.1682 24.8748C18.0302 25.0113 17.8446 25.089 17.6504 25.0915C17.2431 25.1204 16.9848 25.4762 17.0137 25.8835C17.4303 31.7479 18.6636 31.7479 19.1276 31.7479C21.1307 31.7479 21.3447 25.5411 21.3447 22.8729C21.3447 20.2047 21.1287 13.9974 19.1276 13.9974L19.1297 13.9979Z" fill="#004C39"/>
<path d="M18.2991 6.1346C17.1359 6.20417 15.985 6.41055 14.8701 6.74946C11.4452 7.75092 9.11759 9.65594 7.82244 10.9181C7.81906 10.9211 7.81604 10.9245 7.81344 10.9281C7.68258 11.093 7.43034 11.4776 7.52624 11.8931C7.68807 12.5424 8.6251 12.8311 9.30539 12.7342C9.78889 12.6698 10.1435 12.3811 10.3044 12.2188L10.3089 12.2148C11.3443 11.3092 13.0905 10.0171 15.5799 9.27284C16.8308 8.90932 18.1267 8.72434 19.4294 8.72341C23.2469 8.72341 26.6759 10.2763 29.1693 12.7692C30.4503 14.0469 31.467 15.5645 32.1612 17.2353C32.8555 18.9061 33.2136 20.6973 33.2151 22.5066C33.2151 26.3241 31.6622 29.7536 29.1693 32.2465C26.6764 34.7394 23.2494 36.2923 19.4294 36.2923C15.9952 36.293 12.6843 35.0124 10.1445 32.701C9.91224 32.4445 9.6253 32.2434 9.3049 32.1126C8.26997 31.6596 6.84645 31.8859 6.68462 32.4358C6.65265 32.5317 6.65265 32.69 6.77602 32.9732C6.7799 32.9813 6.78459 32.989 6.79001 32.9962C7.10067 33.378 7.43269 33.7418 7.78447 34.0861C10.4697 36.7708 13.4136 37.8062 14.4815 38.1319C16.9433 38.8985 19.5508 39.076 22.0937 38.6501C24.6367 38.2241 27.044 37.2067 29.1217 35.6798C31.1993 34.1528 32.8891 32.1591 34.0549 29.8593C35.2207 27.5596 35.8299 25.0181 35.8334 22.4397C35.8334 17.9104 33.9893 13.8666 31.0129 10.8902C28.4366 8.3144 25.0766 6.6688 21.4623 6.21252C21.4378 6.20951 21.4152 6.19774 21.3986 6.17939C21.3821 6.16103 21.3728 6.13732 21.3724 6.11262L21.3854 4.33297V4.3065C21.3854 4.27921 21.3962 4.25304 21.4155 4.23374C21.4348 4.21445 21.461 4.2036 21.4882 4.2036H24.4587C24.5777 4.2038 24.6956 4.1805 24.8056 4.13504C24.9156 4.08957 25.0156 4.02284 25.0998 3.93867C25.184 3.85449 25.2507 3.75453 25.2962 3.64451C25.3416 3.5345 25.3649 3.41659 25.3647 3.29755V1.13229C25.3638 0.865034 25.2572 0.608989 25.0682 0.420053C24.8791 0.231117 24.623 0.124631 24.3558 0.123842H15.2387C15.1198 0.123644 15.0019 0.146933 14.892 0.192371C14.782 0.23781 14.6821 0.304506 14.598 0.388634C14.5138 0.472762 14.4471 0.572669 14.4017 0.682625C14.3563 0.792582 14.333 0.910426 14.3332 1.0294V3.19116C14.3338 3.45846 14.4403 3.71463 14.6292 3.90369C14.8182 4.09275 15.0743 4.19932 15.3416 4.20011H18.2091C18.2227 4.20011 18.236 4.20277 18.2485 4.20794C18.261 4.21311 18.2724 4.22069 18.2819 4.23025C18.2915 4.2398 18.299 4.25114 18.3042 4.26363C18.3094 4.27611 18.312 4.28949 18.312 4.303V4.32947" fill="#004C39"/>
</svg>
