<svg width="150" height="40" viewBox="0 0 150 40" fill="none" xmlns="http://www.w3.org/2000/svg">
<rect width="40" height="40" rx="12" fill="#004C39"/>
<g clip-path="url(#clip0_1063_38)">
<path d="M31.418 13.6152C31.9443 12.3778 31.865 11.0893 31.1284 10.2212C30.2339 9.16859 28.6288 9.06341 27.1292 9.80007C28.7256 10.8709 30.1685 12.1544 31.418 13.6152Z" fill="#FF0000"/>
<path d="M11.2657 25.5472C11.1427 25.8562 10.9297 26.1211 10.6541 26.3073C10.3786 26.4935 10.0534 26.5925 9.7208 26.5913H8.25135C8.17727 26.5932 8.10355 26.5803 8.03454 26.5533C7.96553 26.5263 7.90262 26.4858 7.84954 26.4341C7.79645 26.3824 7.75426 26.3206 7.72545 26.2523C7.69664 26.184 7.68179 26.1107 7.68179 26.0366C7.68179 25.9624 7.69664 25.8891 7.72545 25.8208C7.75426 25.7525 7.79645 25.6907 7.84954 25.639C7.90262 25.5873 7.96553 25.5468 8.03454 25.5198C8.10355 25.4928 8.17727 25.4799 8.25135 25.4818H9.7208C9.83172 25.4822 9.94018 25.4492 10.0321 25.3872C10.124 25.3251 10.1952 25.2368 10.2363 25.1338C10.2627 25.0652 10.3024 25.0025 10.3533 24.9494C10.4041 24.8963 10.465 24.8539 10.5323 24.8245C10.5997 24.7951 10.6723 24.7794 10.7458 24.7783C10.8193 24.7772 10.8922 24.7907 10.9605 24.818C11.0287 24.8453 11.0908 24.8859 11.1432 24.9375C11.1956 24.989 11.2373 25.0505 11.2658 25.1182C11.2942 25.186 11.3089 25.2588 11.3091 25.3323C11.3092 25.4058 11.2947 25.4786 11.2664 25.5464L11.2657 25.5472ZM14.9095 18.2722C15.1839 18.2723 15.4521 18.191 15.6802 18.0387C15.9084 17.8863 16.0862 17.6697 16.1913 17.4162C16.2963 17.1628 16.3239 16.8839 16.2704 16.6148C16.2169 16.3457 16.0848 16.0985 15.8909 15.9045C15.6969 15.7105 15.4497 15.5783 15.1806 15.5248C14.9116 15.4712 14.6327 15.4987 14.3792 15.6036C14.1257 15.7086 13.909 15.8864 13.7566 16.1145C13.6042 16.3426 13.5228 16.6108 13.5228 16.8852C13.5228 17.253 13.6689 17.6057 13.9289 17.8658C14.189 18.126 14.5417 18.2721 14.9095 18.2722ZM19.3473 15.4985C17.971 15.4985 17.7196 19.4064 17.6872 21.6006H16.9234C16.8278 21.6006 16.7338 21.5758 16.6506 21.5287C16.5674 21.4816 16.4978 21.4138 16.4486 21.3318L15.4254 19.6323C15.2775 19.3864 15.0685 19.1829 14.8188 19.0417C14.569 18.9005 14.2869 18.8263 14 18.8264H12.6852C12.6677 18.8252 12.6501 18.8252 12.6326 18.8264H11.1574C10.8484 18.8263 10.5455 18.9123 10.2827 19.0747C10.0199 19.2371 9.80748 19.4696 9.66937 19.746L8.86659 21.3535C8.8045 21.4846 8.79623 21.6348 8.84356 21.772C8.89089 21.9091 8.99005 22.0223 9.1198 22.0872C9.24954 22.1521 9.39956 22.1636 9.5377 22.1193C9.67584 22.075 9.79113 21.9783 9.85885 21.85L10.6616 20.244C10.7076 20.1519 10.7784 20.0745 10.866 20.0204C10.9535 19.9663 11.0545 19.9377 11.1574 19.9378H11.8333L10.8608 22.3082C10.712 22.6702 10.6958 23.0731 10.8148 23.4459C10.9338 23.8188 11.1806 24.1377 11.5116 24.3465L13.7997 25.7912V28.2583C13.7977 28.3324 13.8106 28.4061 13.8376 28.4751C13.8646 28.5441 13.9052 28.6071 13.9569 28.6601C14.0086 28.7132 14.0704 28.7554 14.1387 28.7842C14.2069 28.813 14.2803 28.8279 14.3544 28.8279C14.4285 28.8279 14.5019 28.813 14.5701 28.7842C14.6384 28.7554 14.7002 28.7132 14.7519 28.6601C14.8036 28.6071 14.8442 28.5441 14.8712 28.4751C14.8982 28.4061 14.9111 28.3324 14.9091 28.2583V25.4834C14.9091 25.3897 14.8853 25.2975 14.8401 25.2154C14.7948 25.1334 14.7296 25.064 14.6504 25.0139L13.5178 24.2989L14.9045 20.9188L15.4977 21.9037C15.6456 22.1497 15.8547 22.3532 16.1046 22.4945C16.3545 22.6357 16.6368 22.7098 16.9238 22.7096H18.2475C18.3194 22.7097 18.3905 22.7239 18.4569 22.7515C18.5232 22.7792 18.5835 22.8197 18.6342 22.8706C18.6848 22.9216 18.7249 22.9821 18.7521 23.0487C18.7793 23.1152 18.7931 23.1864 18.7927 23.2583V23.2695C18.7893 23.4151 18.7296 23.5537 18.6261 23.6561C18.5226 23.7585 18.3834 23.8168 18.2378 23.8187C17.9323 23.8403 17.7386 24.1071 17.7602 24.4126C18.0727 28.8109 18.9977 28.8109 19.3457 28.8109C20.848 28.8109 21.0085 24.1559 21.0085 22.1547C21.0085 20.1535 20.8465 15.4981 19.3457 15.4981L19.3473 15.4985Z" fill="white"/>
<path d="M18.7266 9.65352C17.8261 9.70738 16.9351 9.86716 16.0719 10.1295C13.4204 10.9049 11.6183 12.3797 10.6156 13.3569C10.613 13.3592 10.6107 13.3618 10.6087 13.3647C10.5074 13.4923 10.3121 13.79 10.3863 14.1118C10.5116 14.6145 11.2371 14.838 11.7637 14.763C12.1381 14.7131 12.4126 14.4896 12.5371 14.3639L12.5406 14.3608C13.3422 13.6597 14.6941 12.6593 16.6214 12.0831C17.5899 11.8017 18.5932 11.6585 19.6017 11.6578C22.5572 11.6578 25.2119 12.86 27.1423 14.79C28.1341 15.7792 28.9212 16.9541 29.4587 18.2476C29.9962 19.5412 30.2734 20.9279 30.2746 22.3287C30.2746 25.2842 29.0723 27.9393 27.1423 29.8693C25.2123 31.7993 22.5592 33.0015 19.6017 33.0015C16.943 33.0021 14.3797 32.0107 12.4134 30.2212C12.2336 30.0226 12.0114 29.8669 11.7634 29.7657C10.9621 29.4149 9.86003 29.5901 9.73474 30.0159C9.70999 30.0901 9.70999 30.2127 9.8055 30.4319C9.80851 30.4382 9.81213 30.4442 9.81633 30.4497C10.0568 30.7453 10.3139 31.027 10.5862 31.2935C12.6651 33.372 14.9443 34.1736 15.7711 34.4257C17.677 35.0193 19.6957 35.1567 21.6645 34.8269C23.6332 34.4972 25.497 33.7095 27.1055 32.5273C28.714 31.3452 30.0222 29.8017 30.9248 28.0212C31.8274 26.2407 32.299 24.2731 32.3016 22.2769C32.3016 18.7703 30.8739 15.6396 28.5696 13.3353C26.5751 11.3411 23.9738 10.0671 21.1756 9.71384C21.1566 9.71151 21.1391 9.7024 21.1263 9.68819C21.1135 9.67398 21.1063 9.65562 21.106 9.6365L21.116 8.2587V8.23821C21.116 8.21708 21.1244 8.19682 21.1394 8.18188C21.1543 8.16694 21.1746 8.15855 21.1957 8.15855H23.4954C23.5875 8.1587 23.6788 8.14066 23.764 8.10546C23.8492 8.07026 23.9266 8.0186 23.9917 7.95343C24.0569 7.88826 24.1086 7.81087 24.1438 7.7257C24.179 7.64052 24.197 7.54924 24.1968 7.45708V5.78074C24.1961 5.57383 24.1136 5.3756 23.9672 5.22933C23.8209 5.08305 23.6226 5.00061 23.4157 5H16.3573C16.2652 4.99985 16.174 5.01788 16.0888 5.05306C16.0037 5.08824 15.9264 5.13987 15.8612 5.205C15.7961 5.27013 15.7445 5.34748 15.7093 5.43261C15.6741 5.51774 15.6561 5.60897 15.6562 5.70108V7.37471C15.6567 7.58166 15.7392 7.77998 15.8855 7.92635C16.0317 8.07272 16.23 8.15523 16.437 8.15584H18.657C18.6675 8.15584 18.6778 8.1579 18.6875 8.1619C18.6972 8.16591 18.7059 8.17177 18.7133 8.17917C18.7207 8.18657 18.7266 8.19535 18.7306 8.20501C18.7346 8.21468 18.7367 8.22504 18.7367 8.2355V8.25599" fill="white"/>
</g>
<path d="M51.7129 29.9199C50.9837 28.7715 50.2682 27.4863 49.5664 26.0645C48.8737 24.6335 48.2448 23.166 47.6797 21.6621C47.1146 20.1491 46.6634 18.6953 46.3262 17.3008C45.9889 15.8971 45.8203 14.6439 45.8203 13.541C45.8203 13.304 45.8704 13.1172 45.9707 12.9805C46.1803 12.6888 46.4355 12.388 46.7363 12.0781C47.0462 11.7591 47.4108 11.4264 47.8301 11.0801C47.9668 10.9707 48.0944 10.916 48.2129 10.916C48.3314 10.916 48.4499 10.9707 48.5684 11.0801C48.9967 11.4264 49.3613 11.7591 49.6621 12.0781C49.9629 12.388 50.2181 12.6888 50.4277 12.9805C50.528 13.1172 50.5781 13.3177 50.5781 13.582V13.5273C50.5781 14.3021 50.6829 15.2363 50.8926 16.3301C51.1113 17.4147 51.4076 18.5586 51.7812 19.7617C52.1641 20.9557 52.597 22.1178 53.0801 23.248C53.5723 24.3691 54.0964 25.349 54.6523 26.1875H54.7344C55.3451 25.349 55.8965 24.3737 56.3887 23.2617C56.89 22.1406 57.3184 20.9831 57.6738 19.7891C58.0384 18.5951 58.3164 17.4557 58.5078 16.3711C58.7083 15.2773 58.8086 14.334 58.8086 13.541V13.582C58.8086 13.3177 58.8542 13.1172 58.9453 12.9805C59.3828 12.3789 59.9844 11.7454 60.75 11.0801C60.8958 10.9707 61.0234 10.916 61.1328 10.916C61.2331 10.916 61.3516 10.9707 61.4883 11.0801C61.8984 11.4264 62.2493 11.7591 62.541 12.0781C62.8327 12.388 63.0833 12.6888 63.293 12.9805C63.3841 13.1263 63.4297 13.3223 63.4297 13.5684C63.4297 14.3978 63.3112 15.3594 63.0742 16.4531C62.8464 17.5378 62.5319 18.6862 62.1309 19.8984C61.7298 21.1107 61.2741 22.3229 60.7637 23.5352C60.2533 24.7474 59.7155 25.9049 59.1504 27.0078C58.5853 28.1016 58.0202 29.0723 57.4551 29.9199C56.9811 30.64 56.334 31 55.5137 31H53.627C52.8066 31 52.1686 30.64 51.7129 29.9199ZM45.8203 13.5273V13.541V13.582V13.5273ZM63.4297 13.541V13.582V13.5684V13.541ZM76.0352 12.4746C76.5365 13.1764 77.0469 14.0833 77.5664 15.1953C78.0951 16.2982 78.6055 17.5104 79.0977 18.832C79.5898 20.1536 80.0319 21.5072 80.4238 22.8926C80.8249 24.2689 81.153 25.5951 81.4082 26.8711C81.6634 28.1471 81.8092 29.2819 81.8457 30.2754C81.8548 30.7585 81.6361 31 81.1895 31H77.8809C77.4525 31 77.2292 30.7858 77.2109 30.3574C77.1745 29.3366 77.0104 28.097 76.7188 26.6387H69.2539C68.9987 28.0605 68.8529 29.3001 68.8164 30.3574C68.7982 30.7858 68.5658 31 68.1191 31H64.8789C64.7148 31 64.5781 30.9544 64.4688 30.8633C64.3594 30.763 64.3092 30.5944 64.3184 30.3574C64.3639 29.3457 64.5098 28.1973 64.7559 26.9121C65.0111 25.6178 65.3392 24.278 65.7402 22.8926C66.1413 21.5072 66.5879 20.1536 67.0801 18.832C67.5723 17.5013 68.0827 16.2845 68.6113 15.1816C69.14 14.0788 69.6549 13.1764 70.1562 12.4746C70.4206 12.1009 70.6986 11.8275 70.9902 11.6543C71.291 11.4811 71.6602 11.3945 72.0977 11.3945H74.0664C74.513 11.3945 74.8867 11.4811 75.1875 11.6543C75.4883 11.8275 75.7708 12.1009 76.0352 12.4746ZM72.9453 15.7148C72.3438 16.6719 71.7923 17.8158 71.291 19.1465C70.7897 20.4772 70.3568 21.8444 69.9922 23.248H75.9258C75.543 21.8444 75.1009 20.4772 74.5996 19.1465C74.0983 17.8158 73.5742 16.6719 73.0273 15.7148H72.9453ZM77.1289 9.68555C76.5091 9.63086 75.8073 9.50781 75.0234 9.31641C74.2396 9.11589 73.4375 8.86979 72.6172 8.57812C71.7969 8.28646 71.0176 7.96745 70.2793 7.62109C69.541 7.26562 68.9076 6.91016 68.3789 6.55469L70.4844 3.19141C71.0951 3.72005 71.8652 4.25781 72.7949 4.80469C73.7246 5.35156 74.6771 5.84375 75.6523 6.28125C76.6367 6.70964 77.5072 7.02865 78.2637 7.23828L77.1289 9.68555ZM93.1934 31.3418C91.2975 31.3418 89.6478 30.9772 88.2441 30.248C86.8405 29.5189 85.7513 28.4206 84.9766 26.9531C84.2109 25.4857 83.8281 23.6536 83.8281 21.457C83.8281 17.9661 84.6803 15.3639 86.3848 13.6504C88.0892 11.9277 90.4635 11.0664 93.5078 11.0664C96.3607 11.0664 98.6165 11.9095 100.275 13.5957C101.934 15.2728 102.764 17.7611 102.764 21.0605C102.764 23.3939 102.376 25.3216 101.602 26.8438C100.827 28.3568 99.724 29.487 98.293 30.2344C96.862 30.9727 95.1621 31.3418 93.1934 31.3418ZM93.2754 27.6504C94.916 27.6504 96.1328 27.0625 96.9258 25.8867C97.7188 24.7109 98.1152 23.1842 98.1152 21.3066C98.1152 19.1283 97.7415 17.4922 96.9941 16.3984C96.2467 15.3047 95.0436 14.7578 93.3848 14.7578C90.1126 14.7578 88.4766 16.9134 88.4766 21.2246C88.4766 23.1478 88.8685 24.7018 89.6523 25.8867C90.4453 27.0625 91.653 27.6504 93.2754 27.6504ZM122.164 27.6504C122.829 27.6504 123.349 27.582 123.723 27.4453C124.105 27.3086 124.402 27.14 124.611 26.9395C124.821 26.7389 125.003 26.5384 125.158 26.3379C125.304 26.1556 125.423 26.0189 125.514 25.9277C125.614 25.8366 125.751 25.7728 125.924 25.7363C126.07 25.6908 126.302 25.6634 126.621 25.6543C126.949 25.6361 127.273 25.627 127.592 25.627C127.92 25.627 128.148 25.6361 128.275 25.6543C128.467 25.6634 128.599 25.6999 128.672 25.7637C128.745 25.8275 128.79 25.9642 128.809 26.1738C128.836 26.4655 128.85 26.8118 128.85 27.2129C128.859 27.6139 128.854 27.9603 128.836 28.252C128.827 28.3431 128.809 28.4206 128.781 28.4844C128.763 28.5482 128.717 28.6439 128.645 28.7715C128.553 28.9173 128.376 29.1315 128.111 29.4141C127.847 29.6875 127.46 29.9746 126.949 30.2754C126.439 30.5671 125.778 30.8177 124.967 31.0273C124.165 31.237 123.176 31.3418 122 31.3418C120.742 31.3418 119.566 31.1823 118.473 30.8633C117.379 30.5352 116.417 29.9883 115.588 29.2227C114.768 28.457 114.125 27.4225 113.66 26.1191C113.204 24.8158 112.977 23.1888 112.977 21.2383C112.977 19.069 113.35 17.2279 114.098 15.7148C114.854 14.1927 115.925 13.0352 117.311 12.2422C118.696 11.4492 120.337 11.0527 122.232 11.0527C123.563 11.0527 124.63 11.1895 125.432 11.4629C126.243 11.7363 126.858 12.0599 127.277 12.4336C127.697 12.7982 127.993 13.1172 128.166 13.3906C128.23 13.4909 128.275 13.582 128.303 13.6641C128.33 13.737 128.348 13.8555 128.357 14.0195C128.385 14.2383 128.389 14.5573 128.371 14.9766C128.362 15.3958 128.33 15.765 128.275 16.084C128.239 16.2845 128.18 16.4167 128.098 16.4805C128.061 16.5169 127.997 16.5488 127.906 16.5762C127.815 16.6035 127.678 16.6172 127.496 16.6172C127.204 16.6172 126.876 16.6081 126.512 16.5898C126.147 16.5625 125.874 16.5352 125.691 16.5078C125.473 16.4714 125.313 16.4212 125.213 16.3574C125.113 16.2845 125.012 16.1751 124.912 16.0293C124.748 15.7923 124.465 15.5189 124.064 15.209C123.663 14.8991 123.003 14.7441 122.082 14.7441C120.788 14.7441 119.721 15.2454 118.883 16.248C118.044 17.2415 117.625 18.8548 117.625 21.0879C117.625 23.3118 118.062 24.9616 118.938 26.0371C119.822 27.1126 120.897 27.6504 122.164 27.6504ZM142.426 12.4746C142.927 13.1764 143.438 14.0833 143.957 15.1953C144.486 16.2982 144.996 17.5104 145.488 18.832C145.98 20.1536 146.423 21.5072 146.814 22.8926C147.215 24.2689 147.544 25.5951 147.799 26.8711C148.054 28.1471 148.2 29.2819 148.236 30.2754C148.245 30.7585 148.027 31 147.58 31H144.271C143.843 31 143.62 30.7858 143.602 30.3574C143.565 29.3366 143.401 28.097 143.109 26.6387H135.645C135.389 28.0605 135.243 29.3001 135.207 30.3574C135.189 30.7858 134.956 31 134.51 31H131.27C131.105 31 130.969 30.9544 130.859 30.8633C130.75 30.763 130.7 30.5944 130.709 30.3574C130.755 29.3457 130.9 28.1973 131.146 26.9121C131.402 25.6178 131.73 24.278 132.131 22.8926C132.532 21.5072 132.979 20.1536 133.471 18.832C133.963 17.5013 134.473 16.2845 135.002 15.1816C135.531 14.0788 136.046 13.1764 136.547 12.4746C136.811 12.1009 137.089 11.8275 137.381 11.6543C137.682 11.4811 138.051 11.3945 138.488 11.3945H140.457C140.904 11.3945 141.277 11.4811 141.578 11.6543C141.879 11.8275 142.161 12.1009 142.426 12.4746ZM139.336 15.7148C138.734 16.6719 138.183 17.8158 137.682 19.1465C137.18 20.4772 136.747 21.8444 136.383 23.248H142.316C141.934 21.8444 141.492 20.4772 140.99 19.1465C140.489 17.8158 139.965 16.6719 139.418 15.7148H139.336Z" fill="#004C39"/>
<defs>
<clipPath id="clip0_1063_38">
<rect width="30" height="30" fill="white" transform="translate(5 5)"/>
</clipPath>
</defs>
</svg>
